<?xml version="1.0" encoding="UTF-8" standalone="no"?>
<!-- Created with Inkscape (http://www.inkscape.org/) -->

<svg
   width="5000"
   height="1200"
   viewBox="0 0 5000 1200"
   version="1.1"
   id="svg1"
   inkscape:version="1.4.3 (0d15f75042, 2025-12-25)"
   sodipodi:docname="dragonbrews-banner.svg"
   inkscape:export-filename="dragonbrews-banner.png"
   inkscape:export-xdpi="18.431999"
   inkscape:export-ydpi="18.431999"
   xmlns:inkscape="http://www.inkscape.org/namespaces/inkscape"
   xmlns:sodipodi="http://sodipodi.sourceforge.net/DTD/sodipodi-0.dtd"
   xmlns="http://www.w3.org/2000/svg"
   xmlns:svg="http://www.w3.org/2000/svg">
  <sodipodi:namedview
     id="namedview1"
     pagecolor="#ffffff"
     bordercolor="#000000"
     borderopacity="0.25"
     inkscape:showpageshadow="2"
     inkscape:pageopacity="0.0"
     inkscape:pagecheckerboard="0"
     inkscape:deskcolor="#d1d1d1"
     inkscape:document-units="px"
     showgrid="true"
     inkscape:zoom="0.20185185"
     inkscape:cx="1374.7707"
     inkscape:cy="277.4312"
     inkscape:window-width="2048"
     inkscape:window-height="1083"
     inkscape:window-x="0"
     inkscape:window-y="0"
     inkscape:window-maximized="1"
     inkscape:current-layer="g5">
    <inkscape:grid
       id="grid5"
       units="px"
       originx="0"
       originy="0"
       spacingx="1"
       spacingy="1"
       empcolor="#0099e5"
       empopacity="0.30196078"
       color="#0099e5"
       opacity="0.14901961"
       empspacing="100"
       enabled="true"
       visible="true" />
  </sodipodi:namedview>
  <defs
     id="defs1" />
  <g
     inkscape:label="Layer 1"
     inkscape:groupmode="layer"
     id="layer1">
    <path
       sodipodi:type="star"
       style="fill:#000000;fill-opacity:1;stroke:none;stroke-width:16;stroke-linecap:round;stroke-linejoin:miter;stroke-dasharray:none;stroke-opacity:1"
       id="path6"
       inkscape:flatsided="true"
       sodipodi:sides="6"
       sodipodi:cx="500"
       sodipodi:cy="500"
       sodipodi:r1="500"
       sodipodi:r2="250"
       sodipodi:arg1="1.5707963"
       sodipodi:arg2="2.0943951"
       inkscape:rounded="2.0469737e-16"
       inkscape:randomized="0"
       d="M 500.00001,1000 66.987305,750.00001 l -1.4e-5,-500 L 499.99999,0 933.0127,249.99999 l 10e-6,500 z"
       inkscape:transform-center-y="125"
       transform="translate(0,100)" />
    <g
       id="g5"
       transform="matrix(1.0753143,0,0,1.0753143,-0.0211495,-49.477147)"
       style="fill:#ffffff;fill-opacity:1;stroke:none">
      <path
         style="font-size:512px;font-family:Colus;-inkscape-font-specification:Colus;baseline-shift:baseline;display:inline;overflow:visible;vector-effect:none;fill:#ffffff;fill-opacity:1;stroke:none;stroke-linecap:round;enable-background:accumulate;stop-color:#000000"
         d="m 465,417.99607 v 13.23242 l 3.46875,2.38281 c 13.54539,9.31246 26.74023,31.51624 26.74023,71.74414 v 196.60742 c 0,44.06519 -16.31163,64.32021 -27.04883,72.48047 L 465,776.84372 v 12.99219 h 163.64843 c 36.28659,0 68.16989,-10.00338 91.17383,-29.4043 23.00395,-19.40092 36.63477,-48.26638 36.63477,-83.55664 0,-37.96081 -25.77275,-72.38354 -61.01953,-86.39453 24.13762,-13.74917 42.58789,-41.92893 42.58789,-74.88476 0,-32.16708 -10.80083,-57.63581 -32.19727,-74.00196 -21.39643,-16.36614 -52.12007,-23.59765 -91.51562,-23.59765 z m 116.35156,66.17578 h 28.86523 c 13.88367,0 23.68927,3.18096 29.8711,8.58398 6.18183,5.40302 9.74414,13.42247 9.74414,26.42383 0,14.92567 -3.93336,24.81226 -10.32813,31.20703 -6.39477,6.39477 -15.91037,9.94531 -29.28711,9.94531 h -28.86523 z m 0,141.82422 h 37.05664 c 17.63556,0 29.34797,4.96461 37.0293,13.01172 7.68133,8.0471 11.80273,19.86713 11.80273,35.30859 0,15.44145 -4.14618,27.58946 -11.87305,35.89453 -7.72686,8.30507 -19.39453,13.44922 -36.95898,13.44922 h -37.05664 z"
         id="path3"
         sodipodi:nodetypes="cccsscccssscsssccssssscccssssscc" />
      <path
         style="font-size:512px;font-family:Colus;-inkscape-font-specification:Colus;baseline-shift:baseline;display:inline;overflow:visible;vector-effect:none;fill:#ffffff;fill-opacity:1;stroke:none;stroke-linecap:round;enable-background:accumulate;stop-color:#000000"
         d="m 308.51953,417.99607 c -55.3981,0 -102.20652,17.1353 -135.00586,49.25976 -32.79934,32.12446 -51.16992,78.90823 -51.16992,136.4043 0,57.48866 15.50136,104.46213 48.12695,136.81641 32.62559,32.35427 81.61552,49.35937 146.24024,49.35937 H 465 v -13.25976 l -3.50195,-2.38086 c -9.26792,-6.30219 -24.14649,-29.06234 -24.14649,-69.16016 V 502.7949 c 0,-17.93499 3.41825,-33.75753 8.25977,-45.86133 4.84152,-12.10381 11.43637,-20.38809 15.76562,-23.21875 L 465,431.34763 v -13.35156 z m 5.63086,66.6875 h 37.05664 V 723.14646 H 311.5918 c -32.55276,0 -56.09991,-10.29216 -72.29297,-29.92188 -16.19306,-19.62971 -25.17969,-49.541 -25.17969,-89.56445 0,-42.19102 8.54993,-71.87829 24.64648,-90.74414 16.09655,-18.86585 40.24996,-28.23242 75.38477,-28.23242 z"
         id="path5"
         sodipodi:nodetypes="ssssscccssscccssccsssss" />
      <path
         style="font-size:464.98px;line-height:0px;font-family:Colus;-inkscape-font-specification:Colus;letter-spacing:0px;fill:#000000;stroke:#000000;stroke-width:15.5018;stroke-linecap:round"
         d="m 983.1922,782.07072 h 125.4544 c 113.0921,0 166.6621,-66.11757 166.6621,-178.36368 0,-111.73359 -63.1852,-177.85118 -159.3362,-177.85118 H 983.1922 v 1.02509 c 11.90442,8.71316 24.7246,37.92791 24.7246,75.85582 v 202.45305 c 0,42.02824 -13.27804,67.14267 -24.7246,75.85583 z m 87.4519,-50.74139 V 476.59726 h 40.2918 c 65.4744,0 96.609,40.49061 96.609,127.10978 0,82.51883 -32.9661,127.62229 -94.3197,127.62229 z m 478.0081,-18.45141 -42.5812,-77.39344 c 38.4604,-13.83858 62.2693,-47.15363 62.2693,-101.48281 0,-66.63011 -42.5812,-108.14581 -115.8393,-108.14581 h -130.033 v 1.02509 c 11.9045,8.71316 24.7246,33.31505 24.7246,73.80566 v 204.50321 c 0,42.02824 -12.8201,67.14267 -24.7246,75.85583 v 1.02507 h 110.345 v -1.02507 c -10.073,-8.71316 -22.8931,-33.31506 -22.8931,-73.80567 V 476.59726 l 32.0504,-0.51254 c 39.3761,-0.51254 61.3535,23.06428 61.3535,60.47965 0,45.616 -21.9774,63.55488 -61.3535,63.55488 h -21.9774 l 70.9687,135.82294 c 10.0729,18.96394 17.3987,36.90283 23.3509,56.89187 l 93.8618,-18.96396 v -1.02508 c -21.9773,-8.20063 -42.1233,-28.7022 -59.5221,-59.9671 z m 343.8549,-14.86366 -67.3059,-211.16621 c -9.615,-30.23982 -0.4578,-51.25394 8.2416,-59.9671 v -1.02509 h -121.3335 v 1.02509 c 8.6993,8.20063 17.3987,29.72728 8.2415,59.9671 l -65.4743,211.16621 c -12.3624,39.46554 -32.0504,70.73045 -44.4128,83.03139 v 1.02507 h 96.1512 v -1.02507 c -6.4101,-6.66301 -10.9887,-27.67712 0.9158,-63.04235 l 4.1207,-12.30094 H 1829.78 l 4.1207,12.30094 c 11.4465,35.36523 7.7837,56.37934 0,63.04235 v 1.02507 h 103.4769 v -1.02507 c -12.8201,-11.7884 -32.5082,-43.56585 -44.8705,-83.03139 z M 1769.3422,494.0236 h 1.8313 c 4.5787,39.46553 16.0252,73.80568 26.5561,107.12072 l 16.9408,54.32919 h -87.9096 l 16.941,-54.32919 c 10.5308,-33.31504 21.5195,-67.65519 25.6404,-107.12072 z m 380.4841,97.38249 c -29.3032,0 -45.7864,-1.02508 -55.8593,-3.07524 l -7.3258,78.41853 0.9157,0.51253 c 17.3988,-20.50156 44.4127,-26.13951 68.2216,-26.65205 v 83.54392 c -14.6516,7.6881 -31.1347,11.27587 -50.365,11.27587 -60.8957,0 -97.9826,-50.22886 -97.9826,-131.72261 0,-80.46869 37.0869,-131.2101 101.1877,-131.2101 39.3762,0 70.9687,14.86366 94.3197,44.07839 l 0.9156,-0.51255 -6.8679,-83.54391 c -23.3509,-8.20062 -53.5698,-13.83854 -86.9939,-13.83854 -101.6454,0 -170.3248,71.24296 -170.3248,190.15209 0,106.60819 65.4744,180.92639 161.1677,180.92639 36.6289,0 82.873,-14.86364 113.5499,-36.90282 v -84.569 c 0,-46.12854 4.5786,-68.16774 15.1094,-75.85583 v -1.02507 z m 274.2594,200.91543 c 102.1035,0 170.325,-77.90599 170.325,-192.20227 0,-110.19596 -65.4745,-184.51418 -163.457,-184.51418 -105.7663,0 -169.8671,76.36838 -169.8671,191.68974 0,105.07057 60.4379,185.02671 162.9991,185.02671 z m 4.5787,-53.3041 c -65.4744,0 -99.3562,-52.79155 -99.3562,-136.84801 0,-79.95614 36.6291,-133.26024 97.0669,-133.26024 62.2693,0 99.8141,49.71633 99.8141,136.33548 0,82.0063 -41.2077,133.77277 -97.5248,133.77277 z m 212.9061,43.0533 h 105.7663 v -1.02507 c -11.9044,-8.71316 -23.351,-33.31506 -23.351,-75.85583 v -87.1317 c 0,-36.90283 -0.9157,-70.21788 -8.2416,-118.90912 h 1.8315 c 13.7358,47.15361 25.6403,77.39343 47.6177,116.85897 l 64.5585,117.37151 c 9.1574,16.40127 17.8568,34.85268 22.8932,48.69124 h 96.6091 v -1.02507 c -11.9045,-8.71316 -24.7245,-33.82759 -24.7245,-75.85583 V 502.73677 c 0,-42.02823 12.82,-67.14266 24.7245,-75.85582 v -1.02509 h -105.7663 v 1.02509 c 11.9045,8.71316 23.3511,33.31505 23.3511,75.85582 v 92.2571 c 0,28.70219 0.9157,64.57995 7.3258,105.5831 h -1.8315 c -13.7359,-39.46554 -28.3876,-75.85584 -42.1234,-101.4828 l -65.9323,-124.03451 c -15.1093,-28.18967 -17.8565,-38.95302 -18.7723,-49.2038 h -103.9348 v 1.02509 c 16.9409,12.81346 24.7247,45.61599 24.7247,73.29312 v 205.01575 c 0,42.02824 -13.2782,67.14267 -24.7247,75.85583 z m 537.9892,-189.63956 v -1.53762 c 26.5559,-4.61285 52.6541,-36.39029 52.6541,-75.34328 0,-60.99219 -34.7976,-89.6944 -103.4769,-89.6944 h -126.3702 v 1.02509 c 14.6517,11.27587 27.0139,36.39029 27.0139,78.41852 v 196.81512 c 0,46.12854 -15.5673,69.19281 -27.0139,78.93106 v 1.02507 h 139.1903 c 62.2693,0 107.1399,-38.44044 107.1399,-105.07057 0,-41.51567 -31.1348,-79.4436 -69.1372,-84.56899 z m -54.4858,-116.34644 c 27.014,0 42.5813,13.83857 42.5813,43.05332 0,32.80252 -16.0253,49.20377 -42.5813,49.20377 h -32.9661 v -92.25709 z m 7.3258,255.75716 h -40.2919 V 618.05812 h 40.2919 c 34.3397,0 50.8228,22.55174 50.8228,56.37934 0,33.8276 -16.4831,57.40442 -50.8228,57.40442 z m 391.0146,-18.96396 -42.5812,-77.39344 c 38.4606,-13.83858 62.2693,-47.15363 62.2693,-101.48281 0,-66.63011 -42.5812,-108.14581 -115.8391,-108.14581 h -130.033 v 1.02509 c 11.9042,8.71316 24.7244,33.31505 24.7244,73.80566 v 204.50321 c 0,42.02824 -12.8202,67.14267 -24.7244,75.85583 v 1.02507 h 110.3448 v -1.02507 c -10.073,-8.71316 -22.8932,-33.31506 -22.8932,-73.80567 V 476.59726 l 32.0504,-0.51254 c 39.3762,-0.51254 61.3537,23.06428 61.3537,60.47965 0,45.616 -21.9775,63.55488 -61.3537,63.55488 h -21.9773 l 70.9686,135.82294 c 10.0731,18.96394 17.3988,36.90283 23.351,56.89187 l 93.8619,-18.96396 v -1.02508 c -21.9775,-8.20063 -42.1234,-28.7022 -59.5222,-59.9671 z m 305.8521,-29.21474 c -19.6881,31.26489 -51.7384,48.1787 -92.0304,48.1787 h -49.9071 V 616.52051 h 42.1235 c 25.6402,0 42.1233,9.22571 49.9069,32.28998 h 0.9157 l 13.2781,-86.10661 c -20.6038,3.07524 -33.424,3.58776 -71.4266,3.58776 h -34.7976 v -90.20692 h 60.4379 c 35.7133,0 60.8957,12.81349 71.8845,37.92792 l 0.9157,-0.51254 -7.7837,-91.74455 c -10.073,2.5627 -30.2191,4.10031 -48.5335,4.10031 h -164.3727 v 1.02509 c 11.9045,8.71316 24.7246,33.31505 24.7246,75.85582 v 202.45305 c 0,42.02824 -13.278,67.14267 -24.7246,75.85583 v 1.02507 h 161.6256 c 27.0138,0 38.9183,1.02508 55.8592,4.10032 l 12.8202,-101.99533 z m 95.2356,98.40754 h 108.0557 v -1.02507 c -8.6994,-14.3511 -8.2416,-37.92791 2.2893,-63.55489 l 38.4603,-91.74454 c 7.3259,-17.93888 14.1939,-39.46553 20.1461,-66.63011 h 1.8314 c 2.7471,22.03918 11.4465,54.32916 21.5195,78.41852 l 33.424,79.95613 c 10.9887,25.62698 10.5309,49.20379 2.7471,63.55489 v 1.02507 h 107.1399 v -1.02507 c -13.7358,-20.50157 -17.8567,-44.07837 -10.5308,-78.93106 l 46.2442,-215.77908 c 4.5786,-21.52665 14.6516,-49.20378 31.1346,-59.45456 v -1.02509 h -101.6455 l -0.4579,1.02509 c 11.9045,12.30094 17.8566,35.36522 11.4466,63.55488 l -22.4354,102.50787 c -6.4099,30.23983 -11.9043,65.0925 -14.1937,104.55803 h -1.8314 c -6.4101,-35.36521 -13.7358,-63.55489 -36.1711,-113.2712 l -44.4127,-97.38248 c -13.278,-29.21475 -18.3145,-48.69123 -22.4352,-64.06743 h -2.7472 c -3.6629,15.88874 -10.0731,35.87777 -22.4353,64.57998 l -48.9913,112.24612 c -10.073,23.06426 -22.8932,55.86679 -32.0504,97.89501 h -1.8314 c -1.3736,-40.49061 -4.5787,-64.57996 -10.9887,-92.76964 l -26.0982,-114.29626 c -5.9522,-27.16459 -0.4579,-51.76647 11.9044,-63.55488 v -1.02509 h -110.8028 v 1.02509 c 16.4831,10.25078 26.0982,37.92791 31.1348,58.94202 l 53.1121,216.29162 c 7.7836,32.28997 4.5786,60.47964 -10.531,78.93106 z m 512.8059,7.68809 c 74.1738,-1.02507 111.7185,-47.66615 111.7185,-104.55802 0,-76.88089 -48.5334,-99.43263 -89.2832,-118.39659 -29.7611,-13.83858 -55.4013,-25.62698 -55.4013,-55.35426 0,-26.1395 17.8567,-39.46553 52.6542,-39.46553 26.556,0 52.6542,8.20063 72.3423,42.02823 h 0.9157 l -5.9523,-84.05645 c -26.556,-7.6881 -48.0756,-10.76335 -71.8843,-10.76335 -70.9687,0 -109.887,46.64109 -109.887,97.38249 0,71.24297 44.4126,92.25709 84.2466,110.70851 31.1347,14.35109 59.0643,27.67712 59.0643,63.04235 0,27.67711 -16.0252,45.10346 -53.1121,46.12854 -37.5447,1.02507 -67.3057,-13.83857 -94.7774,-53.81664 l -0.9159,0.51254 7.7838,86.10662 c 20.6038,13.83855 55.4013,21.01412 92.4881,20.50156 z"
         id="text1"
         aria-label="Dragonbrews" />
    </g>
  </g>
</svg>
