<?xml version="1.0" encoding="UTF-8" standalone="no"?>
<!-- Created with Inkscape (http://www.inkscape.org/) -->

<svg
   version="1.1"
   id="svg1"
   width="300"
   height="100"
   viewBox="0 0 300 100"
   sodipodi:docname="banner-b.svg"
   xml:space="preserve"
   inkscape:export-filename="banner-b.png"
   inkscape:export-xdpi="96"
   inkscape:export-ydpi="96"
   inkscape:version="1.4.3 (0d15f75042, 2025-12-25)"
   xmlns:inkscape="http://www.inkscape.org/namespaces/inkscape"
   xmlns:sodipodi="http://sodipodi.sourceforge.net/DTD/sodipodi-0.dtd"
   xmlns="http://www.w3.org/2000/svg"
   xmlns:svg="http://www.w3.org/2000/svg"><defs
     id="defs1"><filter
       style="color-interpolation-filters:sRGB"
       inkscape:label="Drop Shadow"
       id="filter5"
       x="-0.042288162"
       y="-0.12814261"
       width="1.0845743"
       height="1.2562852"><feFlood
         result="flood"
         in="SourceGraphic"
         flood-opacity="1.000000"
         flood-color="rgb(96,64,32)"
         id="feFlood4" /><feGaussianBlur
         result="blur"
         in="SourceGraphic"
         stdDeviation="10.000000"
         id="feGaussianBlur4" /><feOffset
         result="offset"
         in="blur"
         dx="0.000000"
         dy="0.000000"
         id="feOffset4" /><feComposite
         result="comp1"
         operator="out"
         in="flood"
         in2="offset"
         id="feComposite4" /><feComposite
         result="comp2"
         operator="in"
         in="comp1"
         in2="SourceGraphic"
         id="feComposite5" /></filter><filter
       style="color-interpolation-filters:sRGB"
       inkscape:label="Drop Shadow"
       id="filter3"
       x="-0.080407843"
       y="-0.24366541"
       width="1.1608157"
       height="1.4873308"><feFlood
         result="flood"
         in="SourceGraphic"
         flood-opacity="1.000000"
         flood-color="rgb(96,64,32)"
         id="feFlood2" /><feGaussianBlur
         result="blur"
         in="SourceGraphic"
         stdDeviation="20.000000"
         id="feGaussianBlur2" /><feOffset
         result="offset"
         in="blur"
         dx="0.000000"
         dy="0.000000"
         id="feOffset2" /><feComposite
         result="comp1"
         operator="out"
         in="flood"
         in2="offset"
         id="feComposite2" /><feComposite
         result="comp2"
         operator="in"
         in="comp1"
         in2="SourceGraphic"
         id="feComposite3" /></filter><clipPath
       clipPathUnits="userSpaceOnUse"
       id="clipPath6"><path
         style="fill:#ff0000;fill-opacity:1;stroke:none;stroke-width:2.5;stroke-linecap:round;stroke-linejoin:round;stroke-dasharray:none;stroke-opacity:1"
         d="m 193.3869,197.49155 c -0.14187,0.30731 -21.49798,0.45571 -43.51854,0.12399 -3.75025,-0.0565 -7.66541,-0.12339 -11.63902,-0.19803 -2.01445,-0.0378 -7.2338,-6.7848 -7.2338,-6.7848 0,0 -3.77926,6.56239 -6.22617,6.50773 -14.88409,-0.33249 -28.909573,-0.73198 -36.46967,-1.05878 -11.842216,-0.51191 -35.501611,-0.94911 -52.576437,-0.97155 -24.42534,-0.0321 -31.4241097,-0.32439 -32.8224697,-1.37077 -1.63829,-1.22592 -1.70058,-2.40189 -0.79607,-15.03094 2.0713,-28.91999 2.92721,-55.09106 2.58575,-79.288981 -0.0126,-0.89661 8.8666747,-7.527541 8.8666747,-7.527541 0,0 -9.2642027,-6.153103 -9.2550247,-7.875389 0.084,-15.764098 -1.18022,-38.199099 -1.33872,-49.878589 l -0.28819,-21.23543 4.96269,-1.62312 C 10.833193,10.23428 13.966823,8.2116896 16.436823,5.6000996 l 3.83622,-4.05612 135.749177,0.81971 6.55768,18.4434804 2.45913,-18.4434804 142.925,-0.81971 c 6.31934,-0.0362 14.55592,18.7557104 14.55592,18.7557104 0,0 5.68181,-18.4573204 6.97674,-18.4641004 24.91291,-0.13041 45.5534,0.13224 66.20603,0.0661 1.16498,-0.004 5.78097,11.8748904 5.78097,11.8748904 0,0 5.05197,-11.8922804 6.10955,-11.8954104 35.78046,-0.10567 65.07277,0.41974 88.98568,0.41012 2.87888,-10e-4 4.20242,18.6891004 4.20242,18.6891004 0,0 8.5008,-18.6949704 10.57849,-18.6960704 67.92727,-0.036 85.19829,-0.0891 86.12225,0.57725 1.40776,1.01524 1.05473,3.03458 0.5646,32.4885404 -0.0221,1.32562 -4.34158,4.14597 -4.34158,4.14597 0,0 4.22414,3.30267 4.19881,5.06691 -0.072,5.01213 -0.14353,10.64091 -0.20995,16.9644 -0.14038,13.365439 -0.73052,22.750577 -0.89066,37.215309 -0.0124,1.12105 -14.433,8.883221 -14.433,8.883221 0,0 15.19806,6.34989 15.18929,7.16358 -0.18732,17.36783 -0.74254,28.76478 -0.73708,38.82765 0.018,33.1416 1.21195,35.65114 -0.48177,36.26149 -0.99281,0.35776 -4.2837,2.20819 -7.3131,4.11207 -4.98778,3.13464 -6.45386,3.53334 -15.52257,4.22136 -3.23849,0.2457 -43.01222,-0.0728 -95.32405,-0.25005 -1.29802,-0.004 -9.13345,-10.59103 -9.13345,-10.59103 0,0 2.04152,10.5681 0.43861,10.56332 -18.03243,-0.0537 -32.41651,-0.49696 -52.07565,-0.48316 -2.38477,0.002 -11.257,-16.22407 -11.257,-16.22407 0,0 -5.13911,15.70586 -7.39658,15.70917 -22.30187,0.0327 -41.73567,1.32417 -63.60382,1.3964 -2.71875,0.009 -11.15769,-4.17488 -11.15769,-4.17488 0,0 -3.55274,4.22525 -6.81101,4.23695 -69.64056,0.25014 -112.12007,-0.32684 -112.20508,-0.61345 l -4.58679,-15.46461 z"
         id="path6"
         sodipodi:nodetypes="ssscsssssscsccccccccscsscsscssscssscsssssscsscsscsscs" /></clipPath><filter
       style="color-interpolation-filters:sRGB"
       inkscape:label="Drop Shadow"
       id="filter8"
       x="-0.08040785"
       y="-0.24376355"
       width="1.1608157"
       height="1.4875271"><feFlood
         result="flood"
         in="SourceGraphic"
         flood-opacity="1.000000"
         flood-color="rgb(96,64,32)"
         id="feFlood7" /><feGaussianBlur
         result="blur"
         in="SourceGraphic"
         stdDeviation="20.000000"
         id="feGaussianBlur7" /><feOffset
         result="offset"
         in="blur"
         dx="0.000000"
         dy="0.000000"
         id="feOffset7" /><feComposite
         result="comp1"
         operator="out"
         in="flood"
         in2="offset"
         id="feComposite7" /><feComposite
         result="comp2"
         operator="in"
         in="comp1"
         in2="SourceGraphic"
         id="feComposite8" /></filter><filter
       style="color-interpolation-filters:sRGB;"
       inkscape:label="Drop Shadow"
       id="filter12"
       x="-0.080674791"
       y="-0.24473999"
       width="1.1613496"
       height="1.48948"><feFlood
         result="flood"
         in="SourceGraphic"
         flood-opacity="0.494118"
         flood-color="rgb(96,64,32)"
         id="feFlood11" /><feGaussianBlur
         result="blur"
         in="SourceGraphic"
         stdDeviation="10.006791"
         id="feGaussianBlur11" /><feOffset
         result="offset"
         in="blur"
         dx="0.000000"
         dy="0.000000"
         id="feOffset11" /><feComposite
         result="comp1"
         operator="out"
         in="flood"
         in2="offset"
         id="feComposite11" /><feComposite
         result="comp2"
         operator="in"
         in="comp1"
         in2="SourceGraphic"
         id="feComposite12" /></filter></defs><sodipodi:namedview
     id="namedview1"
     pagecolor="#ffffff"
     bordercolor="#000000"
     borderopacity="0.25"
     inkscape:showpageshadow="2"
     inkscape:pageopacity="0.0"
     inkscape:pagecheckerboard="0"
     inkscape:deskcolor="#d1d1d1"
     inkscape:zoom="2.4398867"
     inkscape:cx="144.88378"
     inkscape:cy="57.379714"
     inkscape:window-width="2048"
     inkscape:window-height="1083"
     inkscape:window-x="0"
     inkscape:window-y="0"
     inkscape:window-maximized="1"
     inkscape:current-layer="g1" /><g
     inkscape:groupmode="layer"
     inkscape:label="Image"
     id="g1"><path
       style="fill:#ffffff;stroke:#604020;stroke-width:2;stroke-linecap:round;stroke-linejoin:round;stroke-dasharray:none;stroke-opacity:1;fill-opacity:1"
       d="m 96.546918,98.897378 c -0.071,0.15372 -10.765446,0.22795 -21.792585,0.062 -1.877996,-0.0283 -3.838574,-0.0617 -5.828421,-0.0991 -1.008767,-0.0189 -3.622438,-3.3939 -3.622438,-3.3939 0,0 -1.892524,3.28264 -3.117852,3.2553 -7.45344,-0.16631 -14.476916,-0.36615 -18.262754,-0.52962 -5.930175,-0.25607 -17.777986,-0.47476 -26.328471,-0.48599 -12.2313685,-0.0161 -14.7217718,0.12755 -15.4220224,-0.39587 -0.8203993,-0.61323 -1.1414034,-2.07091 -0.6884558,-8.38821 1.0372358,-14.46635 0.7413178,-26.97801 0.5703263,-39.08228 -0.00631,-0.44851 4.4401254,-3.76543 4.4401254,-3.76543 0,0 -4.6391936,-3.0779 -4.6345977,-3.93942 0.042067,-7.88552 -0.4885497,-17.98084 -0.5679211,-23.82316 L 1.2499997,6.4598221 3.5302165,5.7503621 c 1.600091,-0.52276 3.169305,-1.5345 4.406196,-2.84087 l 1.776142,-1.15952 67.8336085,0.12023 3.573672,8.6461699 2.680504,-8.7910799 70.122871,-0.12022 c 3.16456,-0.005 7.2891,8.6574499 7.2891,8.6574499 0,0 2.99017,-8.6530999 3.63862,-8.6564899 12.47553,-0.0652 23.3927,0.16861 33.73483,0.13553 0.58338,-0.002 2.6812,4.33579 2.6812,4.33579 0,0 1.8887,-4.39572 2.4183,-4.39729 17.91762,-0.0529 32.71503,-0.42089 44.6898,-0.4257 1.44164,-5e-4 2.10442,9.3486599 2.10442,9.3486599 0,0 4.25691,-9.3515999 5.29735,-9.3521499 34.01564,-0.018 41.50512,0.24524 41.96781,0.57857 0.70495,0.50784 0.61621,9.9224899 0.86236,15.0921559 0.18268,3.8367 0.0372,8.56086 -0.0317,15.12307 -0.0703,6.68566 0.0689,10.22104 -0.0113,17.45659 -0.006,0.56077 -7.22755,4.44356 -7.22755,4.44356 0,0 7.61066,3.17634 7.60627,3.58336 -0.0938,8.68773 -0.37184,14.38871 -0.3691,19.42236 0.009,16.57808 0.6069,17.8334 -0.24126,18.13871 -0.49716,0.17896 -2.14513,1.10458 -3.66215,2.05694 -2.4977,1.56801 -3.23187,1.76744 -7.77317,2.11161 -1.62172,0.1229 -21.53904,-0.0364 -47.735,-0.12508 -0.65,-0.002 -4.57372,-5.29785 -4.57372,-5.29785 0,0 1.02233,5.28638 0.21964,5.28398 -9.03002,-0.0269 -16.23307,-0.24859 -26.07769,-0.24168 -1.19421,0.001 -5.63712,-8.1156 -5.63712,-8.1156 0,0 -2.57349,7.85638 -3.70395,7.85803 -11.16801,0.0164 -20.89979,0.66238 -31.85061,0.69851 -1.36145,0.005 -5.58738,-2.08836 -5.58738,-2.08836 0,0 -1.77909,2.11356 -3.41072,2.11941 -34.8736,0.12513 -56.14588,-0.16349 -56.18845,-0.30686 l -2.29689,-7.7357 z"
       id="path12"
       sodipodi:nodetypes="ssscsssssscsccccccccscsscsscssssscsssssscsscsscsscs" /></g></svg>
