<?xml version="1.0" encoding="UTF-8" standalone="no"?>
<!DOCTYPE svg PUBLIC "-//W3C//DTD SVG 1.1//EN" "http://www.w3.org/Graphics/SVG/1.1/DTD/svg11.dtd">
<svg width="100%" height="100%" viewBox="0 0 2153 2156" version="1.1" xmlns="http://www.w3.org/2000/svg" xmlns:xlink="http://www.w3.org/1999/xlink" xml:space="preserve" xmlns:serif="http://www.serif.com/" style="fill-rule:evenodd;clip-rule:evenodd;stroke-linejoin:round;stroke-miterlimit:2;">
    <g transform="matrix(1,0,0,1,-12415.9,-5461.68)">
        <g>
            <g id="Hand" transform="matrix(1,0,0,1,3474.92,-372.367)">
                <path d="M10050.9,6296.33C10053.7,6296.33 10056.5,6296.58 10059.5,6297.11C10074.9,6299.87 10094.2,6314.71 10106.3,6334.58C10117.6,6353.31 10121.8,6375.28 10116.2,6391.67C10116.6,6394.28 10117.4,6399.2 10117.5,6401.84L10116.9,6408.91L10116.6,6409.84C10117.1,6412.96 10118.1,6419.74 10117.7,6423.27C10115.7,6442.52 10118.2,6461.84 10116.2,6481.02C10112.5,6516.71 10119.9,6553.3 10116,6588.8C10113.2,6614.76 10112.4,6646.43 10116.1,6672.35C10119.5,6696.3 10121.9,6730.01 10118,6753.59C10114.5,6775.11 10111.6,6825.38 10117,6846.95L10125.2,6855.6C10133.9,6852.81 10139.7,6846.2 10143.5,6838.44C10149.6,6826.04 10151.2,6810.77 10150,6797.28C10148.8,6783.03 10153.9,6766.4 10153.9,6751.37C10153.9,6718.38 10144.7,6674.36 10146.3,6643.18C10147.3,6623.27 10145.5,6602.62 10147.3,6582.54C10147.7,6578.37 10148.7,6572.14 10149.2,6565.97C10149.5,6563.16 10149.4,6558.38 10149.4,6557.65C10146.7,6549.22 10145.3,6541.66 10145.3,6533.03C10145.3,6490.01 10151.1,6444.69 10158.3,6402.29C10160.6,6388.58 10163.9,6373.26 10172.6,6361.67L10177.3,6356.78L10183.7,6352.7C10192.1,6348.6 10205.9,6347.5 10205.9,6347.5C10211.4,6347.21 10216.8,6348.83 10221.1,6352.05C10221.1,6352.05 10233.7,6361.55 10238.9,6367.38C10249.7,6379.67 10257,6396.76 10262.7,6411.61C10276.3,6447.59 10279.5,6489.21 10282.6,6527.46C10286.1,6571.1 10282.7,6616.43 10289.9,6659.61C10300.4,6723.5 10301.3,6801.12 10279.8,6862.9C10269.7,6891.8 10242.2,6921.64 10222.8,6941.27L10216.1,6946.66C10213.3,6948.4 10210.3,6949.86 10207,6951.08C10203,6952.58 10198.4,6953.45 10195,6954.89C10166,6967.04 10138.8,6965.5 10108.6,6972.16C10103,6973.39 10097.2,6973.45 10091.3,6972.97C10088.6,6972.75 10085.8,6971.76 10083.2,6972.33C10053.6,6978.88 10020.7,6979.77 9989.39,6984.08C9963.27,6987.67 9938.11,6993.5 9918.38,7010.67C9913.49,7014.92 9907.94,7018.59 9902.34,7022.2C9897.35,7025.4 9892.09,7028.29 9888.46,7032.71C9873.64,7050.76 9872.58,7073.92 9867.02,7095.18C9863.43,7108.92 9872.81,7130.22 9880.34,7142.66C9909.95,7191.59 9959.59,7212.1 10018.1,7204.11C10021.7,7203.61 10024.6,7201.07 10027.6,7198.97C10032.1,7195.91 10036.4,7192.73 10040.7,7190.19C10048.7,7185.42 10058.9,7178.96 10067.8,7171.2C10074.5,7165.43 10080.8,7159.14 10082.8,7151.85C10085.7,7141.94 10090.3,7134.55 10088.6,7123.71C10087.1,7114.32 10080.9,7105.49 10073.1,7097.58C10059.4,7083.72 10040.6,7072.85 10025,7069.14C10018.7,7067.61 10010.4,7065.96 10002.3,7065.98C9997.91,7065.99 9993.34,7065.92 9990.24,7068.51C9978.66,7078.2 9966.96,7088.42 9974.33,7102.52C9974.69,7103.21 9976.03,7105.09 9976.77,7106.11C9981.29,7109.31 9984.35,7113.96 9985.53,7119.08C9985.67,7119.18 9985.81,7119.28 9985.95,7119.38C9986.62,7119.84 9987.05,7120.79 9988,7120.65C9990.42,7120.29 9995.19,7119.6 9997.59,7119.25C9999.76,7117.19 10002.8,7114.38 10004.6,7113.17L10013.1,7109.23L10020.9,7108.37L10028.1,7109.81L10035.9,7114.4L10039.2,7118.03L10042.1,7123.22C10046.5,7134.56 10040.5,7147.21 10028.6,7151.46C10028.6,7151.49 10028.5,7151.51 10028.4,7151.53C10026,7153.69 10023.1,7156.29 10022.3,7156.79C10014.9,7161.2 10003.5,7162.76 9994.98,7164.02C9982.67,7165.83 9972.63,7163.01 9963.66,7157.84C9956.66,7153.81 9950.83,7147.35 9943.92,7143.22C9941.35,7141.68 9931.47,7133.54 9928.19,7128.41L9925.81,7123.75L9924.43,7118.32L9924.48,7117.79C9923.25,7115.7 9921.03,7111.86 9920.27,7110.18C9913.6,7095.28 9918.91,7069.98 9927.84,7058.01C9947.73,7031.37 9980.07,7023.86 10011.3,7016.97C10016.9,7015.72 10022.9,7015.56 10028.9,7015.82C10032.4,7015.97 10036,7016.82 10039.2,7015.97C10073.7,7006.98 10109.8,7006.44 10145.1,7003.69C10175.4,7001.33 10205.2,6997.38 10232.1,6981.28C10262.3,6963.2 10278,6937.91 10289.6,6910.14C10303,6878.07 10311.3,6842.81 10326,6809.15C10332.2,6794.88 10350.9,6771.7 10370.8,6762.75C10380.3,6758.49 10390.1,6756.98 10399.6,6758.55C10409.3,6760.18 10419.1,6764.95 10427.7,6775.19C10436.3,6785.49 10440.4,6797.67 10442,6810.67C10443.7,6823.16 10442.3,6836.58 10445.2,6847.79C10459.5,6902.32 10442.3,6964.66 10432.9,7018.44C10429.8,7036.22 10420.8,7067.74 10409.1,7081.79C10396.9,7096.39 10381.5,7106.89 10366.1,7117.14C10354.3,7124.96 10342.3,7132.53 10333.2,7143.61C10328.8,7149.05 10326.8,7155.89 10324.5,7162.49C10321.9,7169.63 10319.2,7176.69 10315.5,7183.1C10298.2,7212.99 10289.9,7248.45 10279.4,7281.2C10274.8,7295.54 10272.5,7311.22 10269.1,7326.47C10264.8,7345.15 10258.9,7363.18 10247.8,7378.68C10206.2,7436.92 10134.2,7458.12 10063.7,7469.35C9961.3,7485.69 9846.07,7477.91 9750.44,7439.97C9738.2,7435.12 9717.03,7420.37 9707.99,7406.12C9705.98,7402.95 9704.45,7399.77 9703.39,7396.67L9701.67,7388.76L9701.84,7381.91L9700.74,7378.84L9700.81,7372.3L9703.27,7364.99L9707.16,7359.66L9711.43,7356.1L9721.86,7351.64C9741.55,7346.68 9774.98,7352.6 9795.23,7355.58C9843.36,7362.67 9896.75,7371.06 9945.36,7363.72C9947.97,7363.33 9949.81,7361.26 9952.05,7360.08C9955.39,7358.34 9958.82,7356.85 9962.41,7355.82C9974.29,7352.41 9987.97,7345.29 9997.67,7335.57C10004.5,7328.7 10009.8,7320.43 10007,7310.86C10004.2,7300.84 9992.53,7292.54 9980.43,7295.43C9962.48,7299.72 9947.21,7309.66 9928.54,7313.49C9857.54,7328.05 9766.46,7315.65 9712.38,7274.25C9697.39,7262.78 9673.28,7240.44 9664.39,7222.38C9641.68,7176.19 9648.69,7123.55 9640.54,7074.18C9631.37,7018.61 9623.88,6963.88 9623.88,6909.25C9623.88,6882.89 9625.62,6856.55 9629.76,6830.15C9635.1,6796.09 9627.59,6759.24 9633.22,6725.14C9636.62,6704.57 9635.61,6683.21 9635.58,6661.87C9635.54,6637.14 9636.71,6612.46 9644.47,6588.73C9647.44,6579.63 9649.93,6568.31 9654.17,6558.34C9658.25,6548.79 9663.84,6540.33 9671.31,6534.08C9676.45,6529.77 9686.97,6523.59 9693.11,6521.99C9709.52,6517.7 9721.51,6519.66 9730.43,6523.95L9736.89,6527.83L9742.28,6532.57C9746.37,6536.86 9749.67,6542.18 9752.08,6548.41C9755.34,6556.83 9756.97,6567.41 9757.93,6578.55C9758.93,6590.22 9758.93,6602.75 9762.18,6612.11C9765.09,6620.45 9765.7,6629.72 9765.31,6639.21C9764.98,6647.22 9763.27,6655.49 9765.11,6662.56C9768.47,6675.38 9765.53,6690.07 9765.53,6702.98C9765.53,6734.14 9764.04,6767.73 9769.37,6798.34C9772.15,6814.28 9772.52,6829.45 9774.19,6843.81C9775.65,6856.39 9778.16,6868.28 9787.03,6879.22C9790.41,6877.71 9793.7,6875.94 9796.7,6873.29C9802.85,6867.85 9804.66,6858.81 9806.02,6849.73C9808.01,6836.49 9807.66,6822.6 9807.66,6812.05C9807.66,6775.98 9809.38,6740.34 9809.38,6704.18C9809.38,6679.77 9803.09,6652.13 9808.11,6628.13C9811.76,6610.65 9806.62,6592.03 9809.14,6574.41C9811.38,6558.7 9813.54,6523.61 9811.58,6509.81C9809.87,6497.83 9814.86,6475.89 9818.39,6464.08C9826.24,6437.79 9827.38,6410.33 9846.74,6387.17C9850.68,6382.46 9853.52,6376.11 9857.64,6371.28C9860.07,6368.42 9862.78,6365.87 9865.81,6363.71L9873.58,6359.38L9885.25,6356.41C9888.9,6356.02 9892.92,6356.06 9897.41,6356.72C9925.69,6360.88 9938.88,6377.5 9944.38,6399.9C9949.51,6420.76 9944.94,6448.91 9948.1,6468.07C9956.25,6517.46 9941.63,6571.38 9950.74,6620.76C9951.94,6627.26 9951.7,6634.29 9950.96,6641.39C9950.43,6646.36 9948.98,6651.39 9950.13,6655.81C9952.66,6665.47 9954.87,6697.5 9954.12,6720.31C9953.73,6732.18 9952.25,6741.93 9950.51,6746.66C9949.01,6750.73 9950.8,6755.75 9951.25,6760.69C9951.96,6768.65 9951.96,6776.5 9950.13,6783.49C9949.43,6786.17 9950.72,6788.95 9951.14,6791.75C9952,6797.59 9952.41,6803.38 9951.58,6808.93C9949.73,6821.32 9950.59,6835.35 9955.04,6846.74C9957.25,6852.38 9960.06,6857.52 9964.95,6860.02C9968.81,6862 9973.58,6861.68 9979.4,6859.83C9980.54,6856.85 9983.33,6849.5 9984.37,6846.52C9992.2,6824.05 9990.6,6796.3 9990.6,6772.38C9990.6,6700.87 9990.56,6626.16 9983.13,6555.01C9979.23,6517.7 9982.92,6480.18 9977.54,6443.13C9974.1,6419.45 9981.08,6397.12 9983.29,6373.91C9984.86,6357.4 9991.2,6334.59 10004.6,6322.78C10010.6,6317.42 10017.4,6309.16 10025.7,6303.93C10033.2,6299.27 10041.5,6296.33 10050.9,6296.33Z" style="fill:rgb(35,31,32);"/>
            </g>
            <g id="human-made---circle" serif:id="human made - circle" transform="matrix(0.998418,0,0,0.998418,12295.2,4736.96)">
                <path d="M940.472,2779.72C938.659,2785.22 936.775,2790.4 934.836,2795.11C929.2,2808.79 922.548,2818.88 916.396,2823.67L911.015,2826.96L904.113,2828.91L896.417,2828.44L889.598,2825.54L885.609,2822.06L882.63,2817.05C881.113,2813.25 880.348,2805.1 881.842,2794.04C886.928,2756.37 913.149,2669.22 916.693,2656.82C918.967,2648.86 927.276,2644.24 935.237,2646.51C938.017,2647.31 940.39,2648.84 942.203,2650.84L942.699,2650.78C943.814,2650.78 945.86,2650.77 947.66,2650.97L952.323,2652L956.188,2653.91L959.525,2656.85L962.582,2662.41L963.411,2670.05C963.404,2670.31 963.393,2670.58 963.38,2670.86L963.81,2672.86L963.662,2677.7L962.418,2682.23C962.326,2682.46 962.232,2682.69 962.137,2682.92C961.406,2688.4 960.379,2695.01 959.094,2702.33C959.232,2703.63 959.333,2704.68 959.387,2705.25C960.453,2709.96 961.055,2715.57 962.391,2720.85C963.099,2723.64 963.556,2726.89 967.159,2727.41C974.511,2728.46 980.789,2729.92 986.758,2730.59C992.723,2731.26 998.233,2730.82 1004.97,2726.53C1007.36,2725.01 1009.8,2722.34 1012.07,2719.52C1012.96,2716.57 1013.83,2713.83 1014.68,2711.33C1015.01,2708.95 1015.58,2706.51 1016.29,2704.07C1017.21,2700.89 1018.57,2697.69 1018.94,2694.65L1021.4,2687.17L1024.17,2683.16L1027.22,2680.08C1031.82,2676.08 1038.53,2672.9 1044.72,2671.84L1053.53,2671.68L1060.54,2673.94L1066.33,2678.52L1068.59,2681.74L1070.16,2685.27L1071.11,2691.43C1071.14,2694.73 1070.36,2701.4 1068.81,2710.25C1063.43,2740.95 1049.01,2802.07 1041.13,2828.78C1038.53,2837.61 1036.05,2843.45 1034.84,2845.25L1031.75,2848.96L1028.14,2851.8L1020.67,2854.95C1014.61,2856.4 1007.56,2855.59 1002.2,2853.53L998.583,2851.59L995.869,2849.21L993.728,2846.36L991.97,2842.64C990.709,2839.1 989.946,2832.65 990.507,2824.11C991.064,2815.63 992.729,2804.24 995.016,2791.77C994.972,2791.58 994.925,2791.41 994.876,2791.24C992.983,2784.93 988.204,2781.02 982.683,2778.45C975.29,2775 966.534,2773.8 958.655,2773.8C950.548,2773.8 945.236,2776.22 940.472,2779.72ZM1895.84,2353.65C1902.54,2350.69 1910.19,2349.78 1918.43,2350.2C1925.52,2350.56 1933.14,2351.92 1940.59,2352.43C1946.84,2352.86 1953.18,2353.28 1957.64,2347.99C1963.78,2340.7 1966.87,2335.7 1966.7,2331.18C1966.59,2328.23 1964.65,2326.1 1962.83,2323.88C1960.3,2320.81 1957.4,2317.89 1954.75,2314.85C1947.42,2306.47 1941.94,2297.2 1941.94,2285.43L1942.55,2280.83L1944,2276.81C1946.26,2271.82 1952.02,2263.82 1953.86,2261.52C1962.3,2250.97 1970.61,2246.48 1978.28,2245.08C1986.16,2243.63 1994.03,2245.29 2002.11,2249.76C2009.82,2254.02 2018.09,2261.39 2027.7,2269.15C2038.1,2277.54 2050.1,2286.92 2061.9,2293.25C2067.14,2296.07 2099.66,2317.92 2113.02,2328.49C2116.84,2331.52 2119.44,2334.04 2120.55,2335.42L2123.54,2341.05C2124.8,2345.24 2125.13,2348.68 2124.99,2351.41L2124.4,2355.52L2122.77,2359.87L2120.5,2363.31L2117.58,2366.14L2111.28,2369.43C2107.72,2370.57 2102.84,2370.91 2097.01,2370.02C2089.8,2368.91 2079.9,2365.66 2070.16,2363.79C2066.23,2363.04 2062.34,2362.48 2058.85,2362.85C2057.22,2363.02 2055.68,2363.44 2055,2365.22C2052.61,2371.51 2055.62,2378.71 2058.49,2385C2062.75,2394.35 2068.39,2402.08 2070.12,2405.12L2072.47,2411.44L2072.62,2414.78L2072.01,2418.22L2070.48,2421.8L2067.98,2425.14L2064.85,2427.68L2061.66,2429.26L2054.77,2430.36L2047.73,2429.05C2041.75,2427.18 2034.06,2423.65 2026.52,2422.31C2023.83,2421.83 2020.97,2420.97 2019.12,2423.28C2015.37,2427.97 2013.31,2431.74 2013.12,2435.21C2012.89,2439.23 2015.55,2442.1 2017.88,2444.82C2021.06,2448.53 2024.55,2451.84 2027.21,2454.98C2029.62,2457.84 2031.53,2460.67 2032.81,2463.42L2034.27,2467.42L2035.06,2472.16L2034.88,2476.49L2033.85,2480.77L2029.76,2488.05L2024.59,2492.83L2017.65,2495.78L2013.31,2496.27L2009.33,2495.91L2005.25,2494.77L2000.4,2492.35C1980.9,2480.16 1933.35,2451.78 1901.18,2428.32C1885.83,2417.13 1873.86,2406.69 1868.62,2399.34C1864.56,2393.66 1865.03,2386.1 1869.33,2380.98C1869.93,2373.42 1874.6,2363.61 1891.37,2355.22C1892.66,2354.58 1894.16,2354.06 1895.84,2353.65ZM2093.96,1522.09C2090.95,1522.75 2088.13,1523.31 2085.53,1523.79C2083.3,1524.65 2080.89,1525.34 2078.41,1525.91C2075.18,1526.65 2071.72,1527.02 2068.89,1528.16L2061.15,1529.65L2056.3,1529.17L2052.13,1528.01C2046.39,1525.93 2040.36,1521.6 2036.43,1516.71L2032.01,1509.09L2030.58,1501.86L2031.77,1494.57L2033.48,1491.03L2035.81,1487.95L2040.74,1484.13C2043.6,1482.5 2049.81,1479.93 2058.3,1476.99C2087.75,1466.78 2148.18,1449.71 2175.36,1443.62C2184.34,1441.61 2190.64,1440.94 2192.81,1441.12L2197.55,1442.02L2201.79,1443.8L2208.17,1448.8C2212.38,1453.39 2215.1,1459.95 2215.9,1465.63L2215.96,1469.74L2215.2,1473.27L2213.75,1476.52L2211.35,1479.86C2208.87,1482.68 2203.6,1486.49 2195.86,1490.14C2188.18,1493.78 2177.41,1497.85 2165.4,1501.91C2165.26,1502.04 2165.13,1502.16 2165.01,1502.29C2160.41,1507.01 2159.31,1513.08 2159.75,1519.16C2160.32,1527.3 2163.53,1535.53 2167.36,1542.42C2171.29,1549.51 2175.99,1552.97 2181.36,1555.44C2187.04,1554.36 2192.49,1553.49 2197.55,1552.89C2212.25,1551.17 2224.29,1552.09 2231.47,1555.14L2236.96,1558.24L2242.02,1563.33L2245.34,1570.29L2246.12,1577.66L2245.02,1582.83L2242.08,1587.87C2239.5,1591.04 2232.75,1595.67 2222.35,1599.74C2186.95,1613.59 2098.04,1632.99 2085.47,1635.92C2077.41,1637.8 2069.34,1632.77 2067.46,1624.71C2066.81,1621.89 2066.99,1619.08 2067.86,1616.52L2067.57,1616.12C2067.03,1615.14 2066.02,1613.36 2065.32,1611.69L2063.96,1607.11L2063.75,1602.81L2064.7,1598.46L2068.07,1593.09L2074.36,1588.65C2074.58,1588.53 2074.82,1588.41 2075.07,1588.29L2076.62,1586.94L2080.92,1584.72L2085.48,1583.61C2085.72,1583.58 2085.97,1583.55 2086.22,1583.52C2091.36,1581.5 2097.64,1579.18 2104.66,1576.75C2105.74,1576 2106.6,1575.4 2107.08,1575.07C2110.68,1571.86 2115.29,1568.6 2119.25,1564.87C2121.35,1562.9 2123.97,1560.92 2122.67,1557.52C2120.02,1550.58 2118.24,1544.38 2115.93,1538.84C2113.62,1533.3 2110.56,1528.7 2103.53,1524.89C2101.05,1523.55 2097.53,1522.71 2093.96,1522.09ZM1344.91,927.253C1339.07,922.838 1334.56,916.586 1330.92,909.181C1327.79,902.814 1325.28,895.487 1322.11,888.728C1319.45,883.056 1316.74,877.306 1309.95,875.981C1300.6,874.156 1294.72,873.879 1290.85,876.227C1288.33,877.758 1287.41,880.484 1286.36,883.154C1284.9,886.857 1283.75,890.804 1282.39,894.605C1278.62,905.077 1273.18,914.37 1262.89,920.087L1258.57,921.791L1254.35,922.475C1248.89,922.922 1239.11,921.774 1236.2,921.283C1222.87,919.027 1214.92,913.944 1209.96,907.924C1204.87,901.732 1202.5,894.047 1202.48,884.817C1202.46,876.006 1204.89,865.195 1207,853.026C1209.29,839.864 1211.66,824.817 1211.46,811.428C1211.38,805.479 1214.69,766.44 1217.44,749.627C1218.23,744.813 1219.17,741.316 1219.84,739.68L1223.3,734.329C1226.36,731.189 1229.2,729.234 1231.66,728.03L1235.54,726.557L1240.13,725.865L1244.24,726.182L1248.14,727.359L1254.07,731.258C1256.8,733.818 1259.47,737.924 1261.52,743.449C1264.05,750.296 1266.02,760.522 1269.12,769.945C1270.37,773.749 1271.77,777.42 1273.78,780.297C1274.72,781.633 1275.84,782.779 1277.72,782.506C1284.39,781.535 1289.22,775.409 1293.32,769.847C1299.42,761.582 1303.44,752.896 1305.26,749.905L1309.65,744.789L1312.49,743.03L1315.79,741.895L1319.67,741.495L1323.8,742.057L1327.54,743.555L1330.47,745.582L1334.77,751.071L1337.05,757.856C1338.33,763.991 1338.97,772.438 1341.46,779.672C1342.35,782.259 1342.98,785.175 1345.9,785.669C1351.83,786.672 1356.12,786.642 1359.25,785.123C1362.87,783.368 1364.08,779.651 1365.33,776.293C1367.04,771.709 1368.24,767.056 1369.69,763.208C1371.01,759.706 1372.56,756.662 1374.35,754.212L1377.13,750.988L1380.89,747.997L1384.76,746.048L1389.01,744.875L1397.35,744.912L1404.04,747.116L1409.99,751.738L1412.53,755.298L1414.15,758.951L1415.13,763.074L1415.37,768.486C1414.18,791.454 1412.47,846.802 1407.59,886.32C1405.26,905.167 1401.95,920.706 1398.08,928.858C1395.08,935.168 1388.24,938.424 1381.68,937.152C1374.78,940.297 1363.94,940.984 1348.46,930.395C1347.27,929.582 1346.09,928.526 1344.91,927.253ZM517.792,1158.94C519.825,1161.25 521.691,1163.44 523.371,1165.48C525.212,1167.02 526.983,1168.79 528.688,1170.68C530.895,1173.14 532.901,1175.99 535.275,1177.91L540.331,1183.95L542.276,1188.43L543.279,1192.63C544.249,1198.66 543.399,1206.03 541.03,1211.84L536.513,1219.41L530.891,1224.17L523.943,1226.67L520.018,1226.89L516.188,1226.36L510.461,1223.9C507.642,1222.19 502.384,1218.01 495.69,1212.02C472.461,1191.23 428.187,1146.7 409.669,1125.9C403.548,1119.03 399.902,1113.84 399.005,1111.86L397.487,1107.27L396.98,1102.71L398.259,1094.7C400.222,1088.79 404.639,1083.23 409.215,1079.77L412.772,1077.72L416.23,1076.68L419.779,1076.36L423.866,1076.84C427.536,1077.63 433.421,1080.4 440.376,1085.38C447.283,1090.34 456.074,1097.77 465.455,1106.3C465.636,1106.36 465.81,1106.41 465.974,1106.45C472.331,1108.18 478.178,1106.19 483.28,1102.86C490.112,1098.4 495.754,1091.6 499.916,1084.91C504.198,1078.03 504.95,1072.24 504.494,1066.34C500.787,1061.9 497.384,1057.57 494.409,1053.43C485.765,1041.42 480.718,1030.44 479.897,1022.69L479.942,1016.38L481.934,1009.49L486.402,1003.2L492.465,998.946L497.523,997.394L503.357,997.516C507.381,998.232 514.703,1001.89 523.311,1009C552.607,1033.21 612.756,1101.52 621.414,1111.08C626.972,1117.21 626.502,1126.7 620.366,1132.26C618.223,1134.2 615.67,1135.41 613.018,1135.9L612.8,1136.34C612.211,1137.29 611.141,1139.03 610.02,1140.46L606.686,1143.88L603.025,1146.15L598.762,1147.43L592.429,1147.09L585.498,1143.75C585.285,1143.61 585.063,1143.46 584.83,1143.3L582.902,1142.61L578.872,1139.93L575.684,1136.48C575.538,1136.28 575.391,1136.08 575.245,1135.87C570.982,1132.36 565.912,1128 560.372,1123.04C559.194,1122.47 558.251,1122 557.736,1121.74C553.175,1120.16 548.092,1117.71 542.909,1116.06C540.158,1115.18 537.159,1113.85 534.819,1116.64C530.044,1122.33 525.487,1126.89 521.765,1131.6C518.045,1136.31 515.509,1141.22 515.591,1149.21C515.62,1152.04 516.598,1155.52 517.792,1158.94ZM361.623,2102.61C360.601,2109.87 357.327,2116.85 352.621,2123.62C348.573,2129.45 343.388,2135.2 339.019,2141.25C335.353,2146.33 331.647,2151.5 333.786,2158.08C336.731,2167.14 339.342,2172.41 343.275,2174.65C345.838,2176.11 348.668,2175.59 351.512,2175.22C355.457,2174.69 359.464,2173.78 363.451,2173.12C374.434,2171.33 385.199,2171.57 395.194,2177.79L398.782,2180.74L401.43,2184.1C404.474,2188.66 408.22,2197.76 409.201,2200.54C413.705,2213.29 413.125,2222.71 410.267,2229.96C407.329,2237.42 401.762,2243.23 393.703,2247.73C386.01,2252.02 375.381,2255.15 363.717,2259.22C351.103,2263.61 336.796,2268.84 325.188,2275.52C320.03,2278.48 284.297,2294.55 268.263,2300.31C263.672,2301.96 260.156,2302.83 258.401,2303.04L252.044,2302.62C247.814,2301.47 244.725,2299.93 242.481,2298.37L239.308,2295.7L236.47,2292.01L234.753,2288.27L233.889,2284.29L234.414,2277.21C235.331,2273.59 237.621,2269.25 241.456,2264.78C246.211,2259.24 254.194,2252.56 260.927,2245.27C263.645,2242.33 266.174,2239.32 267.708,2236.16C268.42,2234.69 268.879,2233.16 267.728,2231.65C263.642,2226.29 255.94,2225.05 249.084,2224.16C238.897,2222.84 229.352,2223.55 225.854,2223.41L219.251,2222.06L216.334,2220.43L213.737,2218.09L211.504,2214.9L209.991,2211.02L209.481,2207.01L209.832,2203.47L212.539,2197.04L217.362,2191.76C222.108,2187.66 229.178,2183 234.294,2177.31C236.124,2175.28 238.363,2173.3 237.377,2170.51C235.375,2164.84 233.268,2161.11 230.419,2159.11C227.126,2156.8 223.286,2157.54 219.746,2158.08C214.911,2158.82 210.261,2160.03 206.192,2160.63C202.49,2161.18 199.074,2161.3 196.065,2160.93L191.896,2160.06L187.452,2158.22L183.871,2155.79L180.782,2152.64L176.761,2145.33L175.44,2138.41L176.589,2130.97L178.471,2127.02L180.875,2123.83L184.002,2120.97L188.621,2118.14C209.272,2108.02 258.483,2082.63 295.399,2067.7C313.005,2060.59 328.197,2055.93 337.204,2055.36C344.176,2054.91 350.345,2059.32 352.419,2065.67C358.518,2070.17 364.385,2079.31 362.646,2097.99C362.512,2099.42 362.165,2100.97 361.623,2102.61ZM1097.82,2699.8C1097.61,2696.84 1098.28,2693.78 1099.92,2691.04L1103.3,2686.93L1107.03,2684.52L1113.34,2683.16L1113.4,2683.18L1115.49,2681.62L1119.07,2680.2L1122.19,2679.72L1128.06,2680.53L1132.93,2682.95C1134.65,2684.1 1136.82,2685.93 1138.78,2687.87C1140.71,2689.78 1142.42,2691.79 1143.42,2693.2L1146.06,2698.47C1149.1,2708.61 1149.89,2721.98 1149.89,2732.92C1149.89,2747.77 1146.26,2777.48 1150.93,2800.25C1152.22,2806.5 1153.71,2812.45 1157.1,2816.15C1158.03,2816.94 1159.01,2817.67 1160.04,2818.32C1160.43,2818.57 1160.83,2818.82 1161.24,2819.04C1161.95,2819.33 1162.72,2819.55 1163.54,2819.7C1164.28,2819.84 1165,2819.97 1165.71,2820.08C1165.86,2820.05 1166.01,2820.02 1166.16,2819.98C1172.26,2818.31 1176.46,2816.45 1179.34,2813.86C1183.72,2809.92 1184.83,2804.64 1186.76,2798.62C1187.63,2795.86 1188.55,2792.98 1189.61,2789.96C1190.44,2775.26 1188.95,2758.6 1188.33,2743.67C1187.62,2726.81 1188.12,2711.76 1191.65,2701.93C1194.68,2693.47 1199.77,2687.72 1206.42,2684.53C1212.47,2681.63 1220.42,2680.6 1230.85,2683.85L1236.3,2686.55L1241.63,2692.06C1243.74,2695.17 1245.48,2699.58 1246.45,2704.92C1248.58,2716.57 1246.84,2735.12 1247.62,2740.82C1251.15,2766.72 1251.17,2796.73 1244.09,2822.4C1238.91,2841.22 1229.92,2857.77 1216.39,2869.61C1211.58,2873.82 1205.12,2876.52 1197.96,2878.03C1191.49,2879.38 1184.29,2879.59 1179.01,2880.98C1154.01,2887.56 1137.41,2883.74 1125.62,2875.37C1109.61,2863.98 1102.18,2841.48 1095.99,2816.69C1090.15,2793.34 1094.75,2757.65 1096.9,2734.04C1097.62,2726.07 1096.25,2717.77 1096.25,2709.87C1096.25,2707.84 1097.16,2703.02 1097.82,2699.8ZM1219.6,2771.33L1219.96,2771.62C1219.85,2764.99 1219.43,2758.42 1218.76,2752.06C1218.98,2756.33 1219.2,2760.68 1219.38,2765.03C1219.47,2767.13 1219.54,2769.23 1219.6,2771.33ZM1137.11,2698.89C1137.35,2697.82 1137.48,2696.64 1137.48,2695.33C1137.48,2696.33 1137.34,2697.54 1137.11,2698.89ZM1282.19,2684.32C1284.23,2683.49 1286.15,2682.81 1287.53,2682.28C1299.24,2677.78 1308.24,2678.11 1315.73,2680.61C1322.91,2683 1328.92,2687.68 1334.51,2693.87C1343.55,2703.85 1350.92,2720.76 1376.13,2720.76C1379.71,2720.76 1382.48,2720.26 1384.55,2718.91C1387.88,2716.74 1389.16,2712.9 1390.44,2708.95C1393.1,2700.78 1394.5,2691.59 1397.09,2683.63C1400.33,2673.67 1405.34,2665.35 1413.18,2659.92C1420.9,2654.58 1431.78,2651.47 1448.19,2654.45L1453.85,2656.59L1458.79,2661C1461.65,2664.69 1463.68,2672.81 1464.31,2675.76C1471.58,2709.7 1478.35,2747.57 1481.82,2781.14C1482.32,2785.98 1484.91,2790.62 1486.67,2795.5C1488.72,2801.18 1490.17,2807 1490.17,2813.05C1490.17,2816.59 1490.8,2821.01 1489.95,2824.66L1487.81,2830.17L1483.52,2835.45L1479.47,2838.02L1474.08,2839.39L1466.99,2839.02L1460.19,2836.99C1452.1,2832.94 1447.31,2827.24 1443.51,2820.67C1439.55,2813.83 1438.3,2804.55 1423.12,2800.93C1419.34,2800.03 1418.44,2803.89 1417.11,2806.97C1414.59,2812.83 1413.13,2819.62 1411.79,2825.14C1410.2,2831.71 1408.45,2837.05 1406.71,2839.96L1402,2845.37L1399.04,2847.21L1395.23,2848.52L1390.14,2848.88L1384.06,2847.44C1380.67,2846.05 1376.46,2842.96 1372.16,2838.36C1368.25,2834.17 1363.72,2828.33 1358.64,2823.56C1356.28,2821.34 1354.21,2818.72 1351.42,2818.72C1350.38,2818.72 1350.19,2819.86 1349.73,2820.71C1348.83,2822.4 1348.13,2824.32 1347.52,2826.34C1344.39,2836.64 1343.15,2848.76 1340.47,2856.12C1339.13,2859.8 1337.44,2862.79 1335.59,2865.03L1332.44,2868.16L1328.07,2870.84L1322.76,2872.35L1317.43,2872.36L1311.94,2870.91C1309.99,2870.12 1307.83,2868.96 1305.49,2867.26L1301.55,2863.54C1300.36,2862.11 1299.16,2860.32 1298.02,2858.15C1295.35,2853.05 1292.74,2844.81 1290.52,2834.84C1284.34,2807.06 1280.15,2763.68 1277.06,2751.33C1274.29,2740.22 1272.69,2728.84 1270.04,2717.56C1269.78,2716.47 1268.57,2712.14 1267.7,2709.05C1265.88,2706.57 1264.8,2703.5 1264.8,2700.18L1265.85,2693.93L1268.47,2689.46L1271.34,2686.83L1274.15,2685.27L1279.8,2684.08L1282.19,2684.32ZM1663.77,2699.13C1664.38,2699.67 1670.16,2704.76 1674.29,2708.1C1681.38,2713.8 1688.64,2720.09 1692.29,2725.12L1695.06,2729.76L1696.55,2734.03L1697.06,2738.7L1696.13,2744.16L1693.51,2749.14L1690.09,2752.58L1684.2,2755.69C1682.32,2756.35 1679.97,2756.87 1677.22,2757.17C1669.81,2757.97 1657.4,2756.92 1645.06,2756.47C1636.5,2756.16 1627.9,2755.52 1622.93,2758.13C1611.98,2763.9 1592.62,2786.46 1577.67,2798.41C1571.17,2803.61 1565.09,2807.16 1560.33,2808.62L1554.02,2809.72L1548.86,2809.28C1545.8,2808.63 1543.23,2807.9 1541.08,2806.88L1536.27,2803.76L1531.77,2798.24L1529.41,2792.23C1527.34,2783.92 1525.79,2754.98 1525.21,2723.51C1518.8,2698.21 1510.17,2670.52 1510.17,2649.36C1510.17,2643.86 1512.14,2634.63 1515.56,2629.97C1518.19,2626.38 1522.34,2623.02 1527.27,2620.31C1531.85,2617.79 1537.21,2615.77 1540.95,2614.07C1564.84,2603.21 1582.15,2609.56 1596.96,2622.51C1607.92,2632.09 1617.13,2646.41 1627.4,2657.7C1640.54,2672.15 1652.76,2682.22 1663.77,2699.13ZM1574.32,2687.56C1573.95,2688.68 1573.15,2691.26 1572.84,2693.17C1571.49,2701.59 1571.81,2712.68 1573.61,2722.1C1574.28,2725.66 1575.97,2730.1 1576.98,2732.55C1582.53,2731.65 1588.46,2728.11 1593.31,2726.25C1601.18,2723.22 1606.12,2720.48 1607.61,2716.23C1609.17,2711.76 1606.2,2707.17 1602.99,2702.3C1599.44,2696.94 1594.72,2691.68 1589.66,2686.77C1583.83,2685.45 1578.07,2685.28 1574.32,2687.56ZM1657.02,2561.17L1657.39,2560.65L1660.37,2557.99C1662.49,2556.45 1669.22,2553.31 1669.22,2553.31C1669.22,2553.31 1667.97,2554.33 1667.53,2554.84L1672.34,2550.85L1676.2,2549.14L1679.76,2548.35C1684.24,2547.75 1691.02,2548.81 1698.96,2551.72C1707.11,2554.7 1717.48,2559.63 1727.67,2562.79C1731.65,2564.02 1735.57,2564.99 1739.24,2565.18C1741.12,2565.28 1742.9,2565.31 1744.38,2564.52C1750.1,2561.44 1747.88,2556.02 1746.18,2550.74C1743.53,2542.52 1739.34,2534.01 1736.72,2526.37C1732.16,2513.09 1732.57,2501.38 1738.78,2493.09C1742.93,2487.54 1750.15,2482.46 1763.08,2480.61L1768.35,2480.51L1773.23,2481.6L1778.05,2483.93L1783.24,2488.18C1788.63,2493.72 1792.82,2504.27 1796.26,2508.65C1807.11,2522.46 1857.09,2603 1865.26,2621.72C1866.18,2623.83 1866.75,2625.53 1867.05,2626.72L1867.61,2630.84L1867.12,2635.03L1865.27,2639.34L1860.36,2645.28L1854.11,2649.59C1850.25,2651.52 1845.87,2652.59 1841,2652.78C1834.54,2653.02 1826.83,2651.52 1818.51,2649.2C1809.29,2646.63 1799.02,2642.96 1789.04,2641.86C1782.54,2641.14 1776.1,2641.44 1770.92,2646.15C1766.82,2649.88 1768.43,2654.76 1769.78,2659.47C1771.67,2666.12 1774.65,2672.78 1776.63,2678.85C1780.02,2689.24 1780.43,2698.68 1777.06,2706.03L1773.99,2711.09L1769.83,2715.35C1767.24,2717.48 1763.96,2719.41 1759.73,2720.92C1752.21,2723.6 1739.37,2723.42 1732.21,2718.86C1728.51,2716.5 1720.74,2707.63 1712.32,2695.24C1695.9,2671.1 1673.91,2633.07 1669.8,2623.21C1664.24,2609.87 1653.39,2598.46 1648.23,2584.54C1643.96,2578.68 1644.46,2570.4 1649.76,2565.11L1654.02,2562.09L1657.02,2561.17ZM1667.1,2589.12C1667.14,2589.1 1667.19,2589.08 1667.24,2589.05L1667.24,2589.05C1667.19,2589.08 1667.14,2589.1 1667.1,2589.12ZM2017.77,2182.03L2016.02,2177.27L2016.04,2169.28C2016.51,2166.49 2017.46,2163.65 2018.75,2160.81C2020.02,2158.01 2022.29,2155.35 2022.78,2152.57C2025.33,2138.13 2031.7,2129.07 2039.84,2123.28C2047.55,2117.79 2057.32,2115.23 2068.45,2115.06C2081.06,2114.86 2095.78,2117.8 2110.21,2120.48C2121.78,2122.64 2133.1,2124.8 2142.3,2123.35C2147.74,2122.49 2181.97,2121.03 2196.47,2124.55C2198.97,2125.16 2201.1,2125.91 2202.8,2126.72L2207.89,2130.06L2211.45,2134.44L2213.2,2138.78C2216.65,2152.56 2209.77,2163.81 2196.57,2172.98C2191.12,2176.77 2184.48,2180.32 2178.78,2184.39C2175.95,2186.41 2172.99,2188.16 2172.12,2191.05C2167.75,2205.62 2164.41,2219.03 2162.74,2234.14C2162.07,2240.16 2165.28,2247.21 2166.24,2253.52C2167.72,2263.2 2166.22,2271.8 2160.65,2278.49L2156.07,2282.84L2150.87,2285.93L2145.22,2287.83L2139.2,2288.49L2133.93,2287.55L2126.78,2283.24C2112.01,2272.36 2055.84,2226.52 2032.55,2206.24C2024.83,2199.52 2020.22,2194.5 2019.49,2193.28C2017.38,2189.76 2016.88,2185.72 2017.77,2182.03ZM2088.43,2180.57C2089.9,2183.47 2095.35,2193.91 2100.65,2199.81C2104.7,2204.32 2111.05,2209.18 2115.14,2212.11C2117.81,2205.64 2122.55,2198.65 2126.69,2191.6C2127.92,2189.49 2129.08,2187.38 2129.88,2185.24C2130.35,2183.98 2130.92,2182.77 2130.57,2181.52C2128.27,2173.48 2119.37,2171.45 2111.03,2171.59C2102.28,2171.74 2092.81,2174.4 2088.43,2180.57ZM2058.08,2031.13C2057.44,2025.76 2058.07,2019.95 2059.75,2014.04C2062.19,2005.46 2067.11,1996.56 2068.83,1990.33C2071.76,1979.72 2073.03,1965.07 2077.24,1952.25C2080.99,1940.85 2086.89,1930.8 2096.04,1923.93C2116.77,1908.39 2157.71,1900.97 2191.69,1908.5C2216.43,1913.99 2237.13,1927.23 2246.12,1948.23C2252.3,1962.64 2254.22,2013.75 2246.94,2045.88C2244.81,2055.32 2241.84,2063.25 2238.38,2068.74C2236.32,2072 2234.03,2074.59 2231.65,2076.55L2224.72,2080.58C2221.82,2081.67 2214.54,2082.42 2204.55,2081.51C2177.56,2079.03 2121.54,2068.02 2110.84,2066.49C2099.16,2064.82 2086.79,2061.21 2075.3,2058.25L2070.14,2056.04L2065.79,2052.6C2061.61,2048.48 2058.29,2042 2057.9,2040.82L2057.2,2037.38L2057.39,2033.33L2058.08,2031.13ZM2150.14,1963.15C2144.62,1966.49 2139.39,1970.98 2134.72,1976.13C2133.26,1977.74 2128.75,1982.45 2127.16,1984.11C2125.7,1993.23 2124.69,2002.32 2125.49,2011.58C2129.38,2016.59 2134.47,2020.38 2140.28,2023.31C2142.5,2023.35 2144.64,2023.2 2146.66,2022.78C2159.76,2020.05 2170.57,2019.47 2179.47,2018.78C2185.41,2018.32 2190.11,2018.8 2193.41,2015.98C2197,2012.91 2198.06,2006.95 2199.52,1996.69C2200.02,1993.19 2200.68,1989.5 2200.96,1985.8C2201.09,1983.99 2201.24,1982.16 2200.99,1980.4C2198.73,1978.12 2196.16,1976.07 2193.38,1974.25C2183.2,1967.56 2170.26,1963.83 2157.72,1963.17C2155.19,1963.04 2152.65,1963.03 2150.14,1963.15ZM2096.12,1766.1C2096.49,1765.7 2096.84,1765.36 2097.18,1765.05L2102.16,1761.73L2107.33,1760.29L2112.34,1760.48L2116.83,1762.02L2122.13,1766.15L2125.58,1771.43C2128.24,1776.92 2130.38,1789.45 2135.46,1800.12C2137.79,1805.01 2140.8,1810.05 2147.45,1809.14C2150.55,1808.72 2152.03,1805.65 2153.74,1802.96C2157.74,1796.68 2160.63,1789.34 2163.53,1784.21C2166.53,1778.89 2169.96,1775.12 2173.22,1773.01L2176.45,1771.32L2180.38,1770.15L2184.69,1769.86L2188.89,1770.53L2192.81,1771.99L2196.38,1774.14L2201.68,1779.6C2204.36,1783.43 2206.21,1788.72 2207.35,1794.88C2208.07,1798.73 2208.56,1803.09 2209.56,1807.28C2210.19,1809.89 2210.54,1812.78 2213.06,1814.17C2215.62,1815.58 2219.29,1815.62 2224.44,1815.01C2225,1814.95 2224.89,1814.29 2225.06,1813.82C2225.37,1812.98 2225.61,1812.08 2225.81,1811.13C2226.82,1806.39 2226.98,1800.94 2227.22,1795.68C2227.55,1788.48 2228,1781.55 2229.38,1776.09C2230.22,1772.75 2231.39,1769.8 2232.85,1767.3L2237.61,1761.37C2239.53,1759.63 2241.35,1758.33 2243.03,1757.37L2247.68,1755.32L2252.42,1754.43L2257.67,1754.8L2263.49,1757.08L2266.88,1759.61L2269.38,1762.36C2271.65,1765.33 2273.72,1769.75 2275,1775.46C2280.02,1797.86 2273.58,1849.47 2271.22,1856.9L2269,1861.44L2264.92,1865.67L2259.4,1868.69C2257.5,1869.43 2255.11,1870.11 2252.32,1870.63C2235.1,1873.87 2194.71,1871.39 2187.19,1871.39C2172.21,1871.39 2156.5,1869.97 2140.85,1869.97C2131.62,1869.97 2122.38,1871.81 2114.61,1871.95C2104.37,1872.13 2095.89,1869.67 2089.67,1863.93C2083.95,1858.65 2079.23,1849.91 2079.17,1834.49C2079,1833.83 2077.44,1827.53 2077.2,1824.33L2077.59,1817.49L2079.45,1812.09C2079.39,1812.21 2079.29,1812.46 2079.29,1812.46C2079.29,1812.46 2079.56,1810.2 2079.55,1808.87C2079.55,1805.21 2079.18,1801.2 2079.01,1797.22C2078.67,1789.31 2079.26,1781.56 2081.86,1775.33C2084.31,1769.44 2090.1,1765.94 2096.12,1766.1ZM2243.2,1839.8C2242.98,1839.67 2242.76,1839.52 2242.55,1839.37C2242.53,1839.38 2242.51,1839.39 2242.5,1839.41C2242.73,1839.55 2242.97,1839.68 2243.2,1839.8ZM2035.08,1456.71C2032.59,1458.33 2029.6,1459.24 2026.4,1459.13L2021.17,1458.17L2017.25,1456.09L2013,1451.23L2012.98,1451.17L2010.6,1450.09L2007.62,1447.66L2005.69,1445.16L2003.54,1439.64L2003.3,1434.2C2003.47,1432.14 2004.01,1429.36 2004.75,1426.7C2005.49,1424.09 2006.41,1421.61 2007.16,1420.06L2010.48,1415.19C2017.87,1407.61 2029.17,1400.43 2038.74,1395.11C2051.72,1387.9 2079.45,1376.64 2097.09,1361.5C2101.93,1357.34 2106.41,1353.15 2107.99,1348.39C2108.23,1347.19 2108.39,1345.98 2108.46,1344.77C2108.49,1344.3 2108.51,1343.83 2108.51,1343.36C2108.41,1342.6 2108.24,1341.82 2107.97,1341.03C2107.73,1340.31 2107.49,1339.62 2107.24,1338.95C2107.15,1338.83 2107.05,1338.72 2106.93,1338.6C2102.52,1334.08 2098.86,1331.32 2095.18,1330.06C2089.62,1328.14 2084.46,1329.73 2078.27,1330.98C2075.43,1331.55 2072.46,1332.14 2069.31,1332.69C2056.05,1339.1 2042.22,1348.49 2029.47,1356.29C2015.07,1365.09 2001.67,1371.97 1991.37,1373.66C1982.5,1375.11 1975,1373.47 1968.98,1369.2C1963.52,1365.32 1958.74,1358.87 1956.53,1348.18L1956.24,1342.1L1958.46,1334.76C1960.16,1331.41 1963.17,1327.74 1967.36,1324.3C1976.51,1316.79 1993.58,1309.29 1998.18,1305.85C2019.11,1290.18 2045.33,1275.59 2071.21,1269.3C2090.18,1264.69 2109.01,1264.51 2125.93,1270.59C2131.95,1272.75 2137.44,1277.09 2142.24,1282.62C2146.57,1287.61 2150.24,1293.8 2154.03,1297.74C2171.92,1316.4 2176.64,1332.77 2175.04,1347.14C2172.87,1366.67 2156.81,1384.09 2138.15,1401.54C2120.57,1417.99 2087.13,1431.3 2065.46,1440.88C2058.13,1444.13 2051.55,1449.36 2044.64,1453.2C2042.87,1454.18 2038.21,1455.72 2035.08,1456.71ZM2038.46,1315.52L2038.54,1315.06C2032.8,1318.38 2027.26,1321.94 2022.02,1325.62C2025.65,1323.35 2029.34,1321.04 2033.05,1318.77C2034.85,1317.67 2036.65,1316.59 2038.46,1315.52ZM2015.2,1422.81C2014.15,1423.12 2013.05,1423.58 2011.91,1424.22C2012.79,1423.73 2013.9,1423.26 2015.2,1422.81ZM1960.66,1303.71C1959.37,1306.52 1957.21,1308.96 1954.31,1310.57L1948.33,1312.68L1943.16,1312.57L1939.47,1311.34L1936.74,1309.64L1932.95,1305.27L1932,1303.07C1930.29,1301.68 1928.76,1300.34 1927.62,1299.39C1918,1291.34 1913.92,1283.31 1912.47,1275.56C1911.07,1268.12 1912.25,1260.58 1914.93,1252.69C1919.27,1239.94 1930.47,1225.29 1918.23,1203.26C1916.49,1200.13 1914.71,1197.94 1912.53,1196.79C1909.01,1194.94 1905.03,1195.68 1900.95,1196.48C1892.53,1198.12 1883.81,1201.36 1875.59,1202.96C1865.31,1204.96 1855.6,1204.63 1847.05,1200.41C1838.64,1196.26 1830.63,1188.26 1825.27,1172.46L1824.39,1166.48L1825.85,1160.02C1827.68,1155.73 1833.8,1150.01 1836.07,1148.02C1862.2,1125.19 1892.02,1100.88 1919.67,1081.54C1923.66,1078.75 1926.46,1074.24 1929.88,1070.32C1933.84,1065.78 1938.23,1061.67 1943.52,1058.74C1946.61,1057.02 1950.16,1054.32 1953.78,1053.3L1959.63,1052.49L1966.33,1053.68L1970.54,1055.97L1974.35,1060.02L1977.48,1066.39L1979,1073.32C1979.4,1082.36 1976.74,1089.32 1972.84,1095.83C1968.79,1102.61 1961.28,1108.21 1965.49,1123.24C1966.54,1126.97 1970.35,1125.9 1973.68,1125.56C1980.03,1124.92 1986.67,1122.9 1992.15,1121.39C1998.67,1119.58 2004.19,1118.52 2007.57,1118.62L2014.59,1120.12L2017.63,1121.82L2020.64,1124.51L2023.42,1128.78L2025.11,1134.79C2025.55,1138.43 2024.89,1143.62 2022.95,1149.61C2021.19,1155.06 2018.29,1161.86 2016.58,1168.61C2015.79,1171.75 2014.5,1174.84 2015.86,1177.27C2016.37,1178.19 2017.45,1177.79 2018.42,1177.78C2020.34,1177.75 2022.35,1177.42 2024.42,1176.98C2034.94,1174.72 2046.13,1169.92 2053.87,1168.68C2057.74,1168.06 2061.18,1168.09 2064.03,1168.62L2068.29,1169.85L2072.76,1172.38L2076.66,1176.28L2079.26,1180.93L2080.66,1186.44C2080.92,1188.52 2080.95,1190.98 2080.6,1193.85L2079.26,1199.1C2078.59,1200.84 2077.61,1202.76 2076.26,1204.8C2073.1,1209.61 2067.17,1215.89 2059.53,1222.68C2038.25,1241.58 2002.36,1266.31 1993.07,1275C1984.71,1282.83 1975.53,1289.74 1966.96,1297.54C1966.12,1298.3 1962.93,1301.46 1960.66,1303.71ZM1759.62,962.317C1759.79,961.525 1761.44,953.999 1762.35,948.768C1763.9,939.802 1765.87,930.395 1768.49,924.771L1771.2,920.094L1774.21,916.718L1778.04,914.006L1783.27,912.161L1788.89,912.035L1793.56,913.357L1799.14,916.987C1800.63,918.32 1802.23,920.114 1803.82,922.372C1808.12,928.463 1813.23,939.823 1818.84,950.829C1822.72,958.462 1826.33,966.291 1831.03,969.362C1841.39,976.139 1870.52,982.105 1888.22,989.362C1895.93,992.523 1901.98,996.115 1905.57,999.567L1909.6,1004.55L1911.72,1009.27C1912.63,1012.26 1913.25,1014.86 1913.4,1017.23L1913,1022.96L1910.36,1029.57L1906.25,1034.55C1900,1040.4 1875.46,1055.81 1848.22,1071.6C1829.23,1089.49 1809.21,1110.48 1790.71,1120.76C1785.91,1123.43 1776.88,1126.19 1771.14,1125.47C1766.73,1124.91 1761.78,1122.92 1757.02,1119.92C1752.59,1117.14 1748.22,1113.44 1744.92,1110.99C1723.83,1095.39 1720.96,1077.17 1725.09,1057.94C1728.14,1043.7 1736.19,1028.69 1741.07,1014.23C1747.32,995.732 1750.19,980.162 1759.62,962.317ZM1792.95,1046.13C1794.1,1045.91 1796.76,1045.36 1798.57,1044.7C1806.59,1041.8 1816.12,1036.13 1823.49,1029.98C1826.27,1027.66 1829.33,1024.03 1830.99,1021.95C1827.51,1017.54 1821.53,1014.08 1817.55,1010.75C1811.08,1005.34 1806.28,1002.35 1801.85,1003.11C1797.18,1003.91 1794.61,1008.74 1791.92,1013.91C1788.95,1019.62 1786.64,1026.3 1784.81,1033.11C1786.49,1038.85 1789.13,1043.96 1792.95,1046.13ZM1667,1031.56C1663.95,1038.14 1656.47,1041.72 1649.28,1039.66L1644.57,1037.4L1642.31,1035.23L1641.66,1035.15L1637.9,1033.84C1635.52,1032.74 1629.5,1028.38 1629.5,1028.38C1629.5,1028.38 1631,1028.97 1631.67,1029.11L1625.84,1026.85L1622.47,1024.3L1620.05,1021.57C1617.35,1017.95 1614.98,1011.51 1613.67,1003.16C1612.32,994.581 1611.6,983.124 1609.4,972.683C1608.55,968.607 1607.49,964.706 1605.88,961.405C1605.06,959.714 1604.21,958.14 1602.8,957.234C1597.34,953.733 1593.68,958.302 1589.89,962.351C1583.98,968.659 1578.58,976.455 1573.17,982.463C1563.78,992.89 1553.34,998.223 1543.08,996.826C1536.22,995.891 1528.27,992.047 1520.37,981.638L1517.73,977.086L1516.31,972.287L1516,966.948L1517.2,960.346C1519.43,952.94 1526.61,944.148 1528.77,939.015C1535.57,922.828 1581.7,840.024 1594.09,823.788C1595.49,821.956 1596.7,820.634 1597.59,819.795L1600.92,817.303L1604.83,815.699L1609.49,815.223L1617.07,816.629L1623.87,820.002C1627.43,822.432 1630.5,825.739 1633.02,829.907C1636.37,835.438 1638.81,842.906 1640.82,851.311C1643.05,860.615 1644.83,871.374 1648.72,880.638C1651.24,886.661 1654.63,892.146 1661.27,894.389C1666.51,896.162 1670.01,892.383 1673.47,888.917C1678.36,884.028 1682.73,878.2 1687.08,873.518C1694.52,865.507 1702.57,860.564 1710.63,859.938L1716.54,860.164L1722.29,861.732C1725.4,862.96 1728.69,864.893 1732.06,867.857C1738.06,873.122 1744.13,884.437 1743.62,892.913C1743.36,897.296 1739.38,908.39 1732.64,921.773C1719.51,947.852 1696.95,985.54 1690.33,993.922C1681.36,1005.26 1676.66,1020.29 1667,1031.56ZM1661.71,1012.75L1661.71,1012.75C1661.76,1012.78 1661.8,1012.81 1661.84,1012.84C1661.8,1012.81 1661.76,1012.78 1661.71,1012.75ZM1135.67,904.019L1132.36,907.867L1125.37,911.724C1122.71,912.674 1119.76,913.226 1116.65,913.474C1113.59,913.719 1110.16,913.03 1107.49,913.949C1093.62,918.738 1082.62,917.562 1073.6,913.262C1065.06,909.185 1058.07,901.892 1052.51,892.245C1046.22,881.324 1041.64,867.021 1036.98,853.111C1033.24,841.945 1029.63,831.003 1023.89,823.67C1020.5,819.327 1002.6,790.12 998.638,775.731C997.954,773.247 997.582,771.02 997.461,769.147L997.907,763.074L1000.01,757.828L1002.95,754.192C1013.32,744.487 1026.5,745.036 1040.93,752.122C1046.89,755.048 1053.21,759.119 1059.53,762.127C1062.68,763.626 1065.64,765.361 1068.59,764.715C1083.45,761.46 1096.79,757.864 1110.82,751.994C1116.41,749.654 1121.01,743.423 1126.05,739.518C1133.8,733.524 1142.05,730.654 1150.6,732.277L1156.62,734.171L1161.85,737.217L1166.25,741.23L1169.76,746.168L1171.5,751.226L1171.21,759.576C1168.87,777.77 1156.07,849.133 1149.66,879.344C1147.54,889.36 1145.38,895.819 1144.67,897.059C1142.62,900.61 1139.34,903.007 1135.67,904.019ZM1100.08,842.962C1101.9,840.272 1108.38,830.435 1110.97,822.937C1112.94,817.21 1114.1,809.299 1114.68,804.3C1107.72,805.11 1099.31,804.357 1091.14,804.166C1088.69,804.109 1086.29,804.126 1084.03,804.464C1082.7,804.663 1081.36,804.751 1080.45,805.667C1074.53,811.582 1077.08,820.354 1081.25,827.567C1085.64,835.146 1092.56,842.134 1100.08,842.962ZM984.189,942.07C979.803,945.239 974.418,947.509 968.438,948.913C959.756,950.951 949.581,950.968 943.302,952.491C932.602,955.087 919.176,961.09 905.933,963.632C894.148,965.894 882.495,965.625 872.046,960.956C848.391,950.388 822.022,918.201 812.103,884.838C804.881,860.544 806.404,836.028 820.388,817.963C829.988,805.562 873.738,779.067 905.356,769.819C914.647,767.101 923.023,765.846 929.503,766.203C933.344,766.415 936.723,767.161 939.593,768.294L946.481,772.39C948.838,774.395 953.033,780.394 957.083,789.57C968.029,814.366 985.616,868.685 989.477,878.782C993.69,889.799 996.536,902.374 999.533,913.848L1000.11,919.433L999.211,924.904C997.639,930.565 993.584,936.616 992.741,937.526L990.082,939.811L986.444,941.611L984.189,942.07ZM870.437,841.787C869.539,844.871 868.998,848.116 868.752,851.428C867.851,863.572 870.873,876.697 876.392,887.979C877.505,890.256 878.727,892.483 880.047,894.615C885.658,897.823 892.119,900.217 898.893,901.791C901.006,902.282 907.311,903.941 909.538,904.529C918.219,901.374 926.652,897.846 934.358,892.643C936.845,886.813 937.692,880.522 937.424,874.018C936.389,872.059 935.211,870.26 933.865,868.702C925.115,858.574 919.36,849.408 914.436,841.964C911.149,836.996 909.286,832.649 905.212,831.135C900.79,829.491 895.066,831.46 885.387,835.161C882.083,836.425 878.537,837.644 875.172,839.195C873.524,839.955 871.85,840.721 870.437,841.787ZM802.06,1019.14C801.559,1019.61 796.816,1024.04 794.133,1025.8L787.963,1028.78L782.341,1029.78C782.473,1029.77 782.742,1029.74 782.742,1029.74C782.742,1029.74 780.633,1030.6 779.468,1031.25C776.279,1033.03 772.95,1035.31 769.559,1037.38C762.806,1041.53 755.747,1044.77 749.035,1045.53C742.693,1046.25 736.822,1042.89 734.041,1037.54C733.515,1037.41 733.038,1037.27 732.61,1037.13L727.288,1034.39L723.522,1030.57L721.252,1026.1L720.413,1021.43L721.451,1014.79L724.394,1009.2C727.897,1004.21 737.816,996.254 744.673,986.628C747.817,982.214 750.759,977.146 746.73,971.765C744.858,969.265 741.465,969.463 738.274,969.271C730.839,968.823 723.023,969.868 717.131,969.828C711.026,969.787 706.057,968.615 702.637,966.786L699.583,964.788L696.662,961.923L694.31,958.29L692.854,954.301L692.228,950.161L692.373,946L694.575,938.713C696.62,934.51 700.345,930.324 705.174,926.332C708.196,923.834 711.764,921.293 714.937,918.379C716.915,916.564 719.271,914.856 719.263,911.971C719.255,909.045 717.507,905.825 714.476,901.618C714.149,901.163 713.62,901.573 713.129,901.651C712.245,901.792 711.341,902.025 710.42,902.307C705.788,903.726 700.94,906.233 696.223,908.58C689.773,911.789 683.495,914.757 678.05,916.208C674.722,917.095 671.575,917.499 668.684,917.438L661.185,916.155C658.734,915.327 656.714,914.366 655.057,913.366L651.01,910.295L647.926,906.58L645.702,901.813L644.866,895.617L645.436,891.429L646.624,887.911C648.112,884.479 650.969,880.52 655.34,876.629C672.486,861.364 720.731,841.929 728.371,840.379L733.415,840.121L739.096,841.631L744.416,844.986C745.99,846.289 747.738,848.047 749.553,850.233C760.748,863.718 778.193,900.226 781.847,906.802C789.119,919.891 795.512,934.318 803.11,947.992C807.595,956.065 813.691,963.248 817.585,969.968C822.721,978.83 824.69,987.443 822.691,995.671C820.852,1003.23 815.505,1011.6 802.06,1019.14ZM727.034,873.177C727.021,873.438 727.001,873.699 726.975,873.96C726.992,873.968 727.01,873.976 727.028,873.984C727.039,873.712 727.041,873.443 727.034,873.177ZM489.236,1242.16C491.865,1243.55 494.109,1245.73 495.567,1248.58L497.276,1253.62L497.352,1258.06L495.172,1264.13L495.127,1264.17L495.346,1266.78L494.662,1270.56L493.417,1273.46L489.636,1278.02L485,1280.88C483.115,1281.73 480.418,1282.61 477.738,1283.25C475.096,1283.88 472.481,1284.27 470.765,1284.37L464.888,1283.83C454.675,1281.06 442.908,1274.66 433.617,1268.88C421.007,1261.04 397.697,1242.26 375.893,1234.2C369.91,1231.99 364.066,1230.11 359.136,1231.04C357.975,1231.42 356.835,1231.86 355.744,1232.39C355.322,1232.59 354.899,1232.8 354.488,1233.03C353.872,1233.48 353.281,1234.01 352.717,1234.63C352.206,1235.19 351.717,1235.74 351.252,1236.28C351.195,1236.42 351.144,1236.57 351.099,1236.72C349.29,1242.77 348.652,1247.32 349.333,1251.14C350.365,1256.93 354.262,1260.67 358.354,1265.48C360.23,1267.68 362.197,1269.99 364.202,1272.48C376.24,1280.95 391.174,1288.49 404.183,1295.85C418.872,1304.15 431.386,1312.52 437.867,1320.71C443.449,1327.76 445.652,1335.11 444.843,1342.44C444.107,1349.11 440.787,1356.41 432.515,1363.54L427.343,1366.74L419.845,1368.37C416.095,1368.51 411.429,1367.66 406.386,1365.67C395.369,1361.32 380.531,1350.04 375.285,1347.69C351.424,1337.01 325.939,1321.17 307.873,1301.61C294.632,1287.26 285.326,1270.89 282.421,1253.15C281.388,1246.83 282.51,1239.92 285.015,1233.05C287.278,1226.84 290.9,1220.62 292.511,1215.4C300.131,1190.69 312.144,1178.62 325.483,1173.04C343.608,1165.45 366.634,1171.03 390.956,1178.86C413.867,1186.24 441.744,1209.01 460.652,1223.3C467.043,1228.13 474.813,1231.34 481.521,1235.51C483.244,1236.58 486.854,1239.9 489.236,1242.16ZM364.177,1307.78L363.74,1307.93C369.425,1311.35 375.232,1314.46 380.986,1317.25C377.242,1315.18 373.432,1313.08 369.644,1310.93C367.813,1309.89 365.988,1308.84 364.177,1307.78ZM469.259,1276.01C470.045,1276.78 470.979,1277.51 472.087,1278.2C471.238,1277.67 470.285,1276.92 469.259,1276.01ZM391.646,1381.53C394.722,1381.29 397.9,1381.99 400.718,1383.75L405.468,1387.95L407.88,1392.52L408.599,1396.35L408.438,1399.56L406.461,1404.99L405,1406.89C404.621,1409.06 404.187,1411.06 403.909,1412.51C401.547,1424.83 396.511,1432.29 390.436,1437.33C384.61,1442.16 377.456,1444.79 369.251,1446.28C356.002,1448.68 337.753,1446.01 324.439,1467.41C322.547,1470.45 321.502,1473.06 321.555,1475.53C321.641,1479.5 324.224,1482.63 326.902,1485.8C332.434,1492.37 339.499,1498.41 344.889,1504.82C351.632,1512.83 356.055,1521.48 356.519,1531.01C356.976,1540.38 353.87,1551.26 342.669,1563.62L337.864,1567.3L331.512,1569.16C326.866,1569.64 318.898,1567.07 316.062,1566.05C283.406,1554.3 247.677,1540.04 217.339,1525.26C212.96,1523.12 207.657,1522.87 202.579,1521.79C196.681,1520.53 190.963,1518.69 185.824,1515.49C182.819,1513.62 178.739,1511.82 176.088,1509.17L172.537,1504.44L170.323,1498.01L170.28,1493.21L171.971,1487.91L176.027,1482.09L181.337,1477.39C189.048,1472.66 196.421,1471.6 204.01,1471.84C211.901,1472.1 220.449,1475.94 231.534,1464.96C234.294,1462.23 231.503,1459.42 229.586,1456.67C225.943,1451.43 220.952,1446.6 216.971,1442.55C212.23,1437.73 208.615,1433.42 207.063,1430.41L204.967,1423.55L204.967,1420.07L205.862,1416.13L208.245,1411.63L212.677,1407.23C215.649,1405.08 220.503,1403.14 226.681,1401.92C232.299,1400.81 239.652,1400.05 246.385,1398.26C249.512,1397.42 252.838,1397.05 254.308,1394.69C254.862,1393.8 253.991,1393.04 253.507,1392.2C252.554,1390.54 251.286,1388.93 249.896,1387.35C242.808,1379.25 233.174,1371.79 228.336,1365.63C225.915,1362.55 224.275,1359.53 223.348,1356.78L222.355,1352.45L222.389,1347.32L223.904,1342.02L226.71,1337.49L230.849,1333.59C232.544,1332.35 234.673,1331.12 237.353,1330.04L242.599,1328.66C244.438,1328.41 246.593,1328.33 249.031,1328.51C254.778,1328.94 263.149,1331.08 272.79,1334.46C299.643,1343.88 338.69,1363.24 350.805,1367.14C361.705,1370.65 372.207,1375.31 383.188,1379.02C384.256,1379.38 388.569,1380.64 391.646,1381.53ZM243.353,1592.54C268.214,1600.46 296.284,1607.76 314.258,1618.94C318.925,1621.85 325.724,1628.39 327.877,1633.76C329.534,1637.89 330.196,1643.18 329.889,1648.8C329.604,1654.02 328.493,1659.64 327.961,1663.71C324.563,1689.73 310.028,1701.09 291.213,1706.82C277.286,1711.06 260.258,1711.32 245.247,1714.07C226.039,1717.59 211.037,1722.65 190.859,1723.07C190.081,1723.31 182.701,1725.52 177.689,1727.27C169.099,1730.27 159.92,1733.12 153.728,1733.55L148.322,1733.45L143.909,1732.46L139.679,1730.43L135.528,1726.76L132.688,1721.91L131.576,1717.18L132.039,1710.54C132.482,1708.6 133.273,1706.33 134.472,1703.84C137.706,1697.11 145.156,1687.13 152.055,1676.89C156.84,1669.79 161.93,1662.83 162.334,1657.23C163.225,1644.88 154.294,1616.52 152.04,1597.52C151.059,1589.25 151.258,1582.21 152.534,1577.4L154.931,1571.46L158.027,1567.31C160.201,1565.06 162.173,1563.26 164.174,1561.98L169.373,1559.54L176.434,1558.64L182.783,1559.81C190.93,1562.43 216.325,1576.4 243.353,1592.54ZM247.932,1653.23C247.179,1652.33 245.407,1650.28 243.951,1649.01C237.522,1643.41 227.936,1637.83 218.981,1634.38C215.605,1633.07 210.943,1632.17 208.323,1631.72C206.158,1636.91 206.034,1643.81 205.056,1648.91C203.469,1657.2 203.185,1662.84 206.006,1666.35C208.975,1670.04 214.444,1669.94 220.272,1669.78C226.702,1669.6 233.66,1668.37 240.504,1666.67C244.704,1662.42 247.889,1657.62 247.932,1653.23ZM296.363,1770.4C303.602,1769.87 310.361,1774.67 312.06,1781.96L312.37,1787.18L311.57,1790.21L311.811,1790.81L312.495,1794.74C312.689,1797.36 311.797,1804.73 311.797,1804.73C311.797,1804.73 311.592,1803.13 311.387,1802.48L312.239,1808.68L311.645,1812.85L310.44,1816.29C308.587,1820.42 304.104,1825.61 297.44,1830.82C290.599,1836.16 280.938,1842.36 272.874,1849.35C269.727,1852.07 266.832,1854.89 264.729,1857.9C263.65,1859.45 262.683,1860.95 262.578,1862.62C262.172,1869.1 267.943,1870.08 273.323,1871.43C281.705,1873.52 291.141,1874.46 299.021,1876.27C312.697,1879.41 322.428,1885.95 326.191,1895.6C328.708,1902.05 329.208,1910.86 323.944,1922.82L321.25,1927.35L317.745,1930.92L313.225,1933.78L306.874,1935.94C299.318,1937.59 288.143,1935.58 282.609,1936.19C265.157,1938.1 170.367,1937.99 150.158,1935.05C147.878,1934.72 146.135,1934.3 144.968,1933.93L141.173,1932.23L137.873,1929.59L135.193,1925.75L132.742,1918.44L132.384,1910.85C132.78,1906.56 134.182,1902.28 136.599,1898.04C139.806,1892.43 145.151,1886.67 151.52,1880.83C158.571,1874.36 167.113,1867.59 173.323,1859.69C177.36,1854.55 180.51,1848.93 179.247,1842.04C178.248,1836.59 173.248,1835.37 168.536,1834.03C161.888,1832.13 154.67,1831.14 148.467,1829.61C137.852,1827 129.621,1822.36 125.158,1815.62L122.484,1810.34L121.063,1804.56C120.624,1801.24 120.718,1797.43 121.67,1793.04C123.361,1785.24 130.302,1774.44 137.957,1770.76C141.915,1768.86 153.547,1766.95 168.518,1766.34C197.692,1765.16 241.595,1766.57 252.139,1768.3C266.402,1770.62 281.826,1767.43 296.363,1770.4ZM282.495,1784.16L282.497,1784.16C282.501,1784.11 282.505,1784.06 282.51,1784C282.505,1784.06 282.5,1784.11 282.495,1784.16ZM442.937,2296.8L447.907,2297.83L454.677,2302.07C456.799,2303.93 458.714,2306.24 460.438,2308.83C462.141,2311.39 463.205,2314.73 465.303,2316.61C476.225,2326.41 480.543,2336.6 481.162,2346.57C481.748,2356.02 478.765,2365.67 473.033,2375.21C466.544,2386.02 456.266,2396.97 446.369,2407.8C438.425,2416.49 430.613,2424.96 426.989,2433.53C424.842,2438.61 408.002,2468.44 397.35,2478.89C395.511,2480.7 393.745,2482.11 392.166,2483.12L386.64,2485.68L381.035,2486.39L376.429,2485.59C362.908,2481.24 356.988,2469.45 356.174,2453.39C355.838,2446.76 356.323,2439.26 355.882,2432.27C355.663,2428.79 355.742,2425.36 353.745,2423.1C343.685,2411.69 334.06,2401.77 322.118,2392.37C317.357,2388.61 309.677,2387.62 303.812,2385.11C294.81,2381.24 288.295,2375.43 285.562,2367.17L284.29,2360.98L284.414,2354.93L285.783,2349.13L288.396,2343.67L291.975,2339.69L299.415,2335.89C316.456,2329.1 385.051,2305.63 414.572,2296.56C424.361,2293.55 431.051,2292.29 432.482,2292.32C436.581,2292.38 440.272,2294.09 442.937,2296.8ZM406.849,2357.56C403.613,2357.28 391.869,2356.4 384.059,2357.78C378.092,2358.83 370.616,2361.66 365.966,2363.59C370.05,2369.27 373.479,2376.99 377.28,2384.23C378.417,2386.39 379.603,2388.49 380.996,2390.3C381.813,2391.36 382.54,2392.49 383.785,2392.84C391.828,2395.14 398.259,2388.65 402.537,2381.5C407.032,2373.99 409.78,2364.55 406.849,2357.56ZM549.77,2410.74C554.671,2413.03 559.27,2416.64 563.402,2421.18C569.4,2427.78 574.357,2436.67 578.738,2441.42C586.204,2449.51 597.972,2458.33 606.626,2468.67C614.327,2477.88 619.751,2488.19 620.746,2499.59C622.996,2525.4 607.667,2564.09 583.321,2588.96C565.593,2607.07 543.422,2617.65 520.839,2614.2C505.337,2611.83 460.928,2586.45 437.487,2563.31C430.599,2556.51 425.434,2549.79 422.599,2543.96C420.919,2540.49 419.929,2537.18 419.526,2534.12L419.761,2526.11C420.369,2523.08 423.576,2516.49 429.629,2508.5C445.989,2486.89 484.929,2445.13 491.88,2436.85C499.464,2427.82 509.074,2419.22 517.648,2411.03L522.25,2407.81L527.469,2405.94C533.182,2404.57 540.439,2405.17 541.645,2405.47L544.934,2406.68L548.275,2408.99L549.77,2410.74ZM512.997,2484.67C511.787,2486.52 510.786,2488.43 510.078,2490.36C505.475,2502.93 500.257,2512.41 496.142,2520.33C493.396,2525.62 490.501,2529.36 491.156,2533.65C491.867,2538.32 496.368,2542.36 504.304,2549.03C507.013,2551.3 509.801,2553.81 512.791,2556C514.256,2557.07 515.739,2558.16 517.357,2558.88C520.488,2558.16 523.588,2557.06 526.603,2555.67C537.656,2550.56 547.661,2541.54 554.843,2531.24C556.292,2529.16 557.645,2527.01 558.868,2524.82C558.947,2518.36 557.902,2511.55 555.988,2504.86C555.391,2502.78 553.778,2496.46 553.211,2494.22C546.237,2488.17 539.058,2482.51 530.766,2478.3C524.462,2478.96 518.552,2481.28 512.997,2484.67ZM705.6,2532.51C706.254,2532.72 712.424,2534.72 715.269,2536.21L720.867,2540.15L724.472,2544.58C724.403,2544.47 724.241,2544.25 724.241,2544.25C724.241,2544.25 726.025,2545.67 727.157,2546.38C730.258,2548.3 733.866,2550.11 737.33,2552.06C744.229,2555.95 750.496,2560.55 754.418,2566.05C758.123,2571.24 758.039,2578.01 754.718,2583.03C754.859,2583.56 754.968,2584.04 755.051,2584.48L755.239,2590.47L753.729,2595.62L750.926,2599.77L747.249,2602.77L740.941,2605.09L734.631,2605.23C728.561,2604.59 716.794,2599.78 705.048,2598.47C699.663,2597.86 693.804,2597.75 691.057,2603.89C689.781,2606.74 691.602,2609.61 692.984,2612.49C696.203,2619.21 700.913,2625.53 703.74,2630.7C706.668,2636.06 708.058,2640.97 708.121,2644.85L707.856,2648.49L706.771,2652.43L704.738,2656.25L701.958,2659.46L698.643,2662.02L694.935,2663.91L687.496,2665.53C682.829,2665.78 677.36,2664.56 671.526,2662.28C667.874,2660.85 663.92,2658.97 659.832,2657.61C657.285,2656.76 654.647,2655.53 652.129,2656.94C649.576,2658.37 647.61,2661.46 645.404,2666.15C645.165,2666.66 645.781,2666.92 646.088,2667.31C646.64,2668.02 647.283,2668.69 647.977,2669.36C651.467,2672.72 656.013,2675.74 660.355,2678.72C666.293,2682.8 671.937,2686.85 675.849,2690.91C678.241,2693.38 680.123,2695.94 681.474,2698.49L683.994,2705.67C684.461,2708.22 684.602,2710.45 684.532,2712.38L683.813,2717.41L682.063,2721.91L678.977,2726.17L673.968,2729.91L670.03,2731.45L666.377,2732.12C662.654,2732.49 657.806,2731.91 652.282,2729.98C630.611,2722.41 590.19,2689.67 585.125,2683.75L582.449,2679.46L581.01,2673.76L581.359,2667.48C581.734,2665.47 582.421,2663.09 583.451,2660.44C589.802,2644.11 613.241,2611.13 617.215,2604.74C625.125,2592.03 634.631,2579.43 642.894,2566.15C647.772,2558.31 651.091,2549.49 655.073,2542.82C660.326,2534.03 666.899,2528.12 675.061,2525.88C682.566,2523.81 692.475,2524.42 705.6,2532.51ZM614.444,2668.99C614.679,2668.87 614.917,2668.76 615.157,2668.66C615.156,2668.64 615.154,2668.62 615.153,2668.6C614.909,2668.72 614.673,2668.85 614.444,2668.99Z" style="fill:rgb(35,31,32);"/>
            </g>
        </g>
    </g>
</svg>
