<?xml version="1.0" encoding="UTF-8" standalone="no"?>
<!DOCTYPE svg PUBLIC "-//W3C//DTD SVG 1.1//EN" "http://www.w3.org/Graphics/SVG/1.1/DTD/svg11.dtd">
<svg width="100%" height="100%" viewBox="0 0 827 1182" version="1.1" xmlns="http://www.w3.org/2000/svg" xmlns:xlink="http://www.w3.org/1999/xlink" xml:space="preserve" xmlns:serif="http://www.serif.com/" style="fill-rule:evenodd;clip-rule:evenodd;stroke-linejoin:round;stroke-miterlimit:2;">
    <g transform="matrix(1,0,0,1,-8100.64,-5923.96)">
        <g id="Hand" transform="matrix(1,0,0,1,-1523.24,-372.367)">
            <path d="M10050.9,6296.33C10053.7,6296.33 10056.5,6296.58 10059.5,6297.11C10074.9,6299.87 10094.2,6314.71 10106.3,6334.58C10117.6,6353.31 10121.8,6375.28 10116.2,6391.67C10116.6,6394.28 10117.4,6399.2 10117.5,6401.84L10116.9,6408.91L10116.6,6409.84C10117.1,6412.96 10118.1,6419.74 10117.7,6423.27C10115.7,6442.52 10118.2,6461.84 10116.2,6481.02C10112.5,6516.71 10119.9,6553.3 10116,6588.8C10113.2,6614.76 10112.4,6646.43 10116.1,6672.35C10119.5,6696.3 10121.9,6730.01 10118,6753.59C10114.5,6775.11 10111.6,6825.38 10117,6846.95L10125.2,6855.6C10133.9,6852.81 10139.7,6846.2 10143.5,6838.44C10149.6,6826.04 10151.2,6810.77 10150,6797.28C10148.8,6783.03 10153.9,6766.4 10153.9,6751.37C10153.9,6718.38 10144.7,6674.36 10146.3,6643.18C10147.3,6623.27 10145.5,6602.62 10147.3,6582.54C10147.7,6578.37 10148.7,6572.14 10149.2,6565.97C10149.5,6563.16 10149.4,6558.38 10149.4,6557.65C10146.7,6549.22 10145.3,6541.66 10145.3,6533.03C10145.3,6490.01 10151.1,6444.69 10158.3,6402.29C10160.6,6388.58 10163.9,6373.26 10172.6,6361.67L10177.3,6356.78L10183.7,6352.7C10192.1,6348.6 10205.9,6347.5 10205.9,6347.5C10211.4,6347.21 10216.8,6348.83 10221.1,6352.05C10221.1,6352.05 10233.7,6361.55 10238.9,6367.38C10249.7,6379.67 10257,6396.76 10262.7,6411.61C10276.3,6447.59 10279.5,6489.21 10282.6,6527.46C10286.1,6571.1 10282.7,6616.43 10289.9,6659.61C10300.4,6723.5 10301.3,6801.12 10279.8,6862.9C10269.7,6891.8 10242.2,6921.64 10222.8,6941.27L10216.1,6946.66C10213.3,6948.4 10210.3,6949.86 10207,6951.08C10203,6952.58 10198.4,6953.45 10195,6954.89C10166,6967.04 10138.8,6965.5 10108.6,6972.16C10103,6973.39 10097.2,6973.45 10091.3,6972.97C10088.6,6972.75 10085.8,6971.76 10083.2,6972.33C10053.6,6978.88 10020.7,6979.77 9989.39,6984.08C9963.27,6987.67 9938.11,6993.5 9918.38,7010.67C9913.49,7014.92 9907.94,7018.59 9902.34,7022.2C9897.35,7025.4 9892.09,7028.29 9888.46,7032.71C9873.64,7050.76 9872.58,7073.92 9867.02,7095.18C9863.43,7108.92 9872.81,7130.22 9880.34,7142.66C9909.95,7191.59 9959.59,7212.1 10018.1,7204.11C10021.7,7203.61 10024.6,7201.07 10027.6,7198.97C10032.1,7195.91 10036.4,7192.73 10040.7,7190.19C10048.7,7185.42 10058.9,7178.96 10067.8,7171.2C10074.5,7165.43 10080.8,7159.14 10082.8,7151.85C10085.7,7141.94 10090.3,7134.55 10088.6,7123.71C10087.1,7114.32 10080.9,7105.49 10073.1,7097.58C10059.4,7083.72 10040.6,7072.85 10025,7069.14C10018.7,7067.61 10010.4,7065.96 10002.3,7065.98C9997.91,7065.99 9993.34,7065.92 9990.24,7068.51C9978.66,7078.2 9966.96,7088.42 9974.33,7102.52C9974.69,7103.21 9976.03,7105.09 9976.77,7106.11C9981.29,7109.31 9984.35,7113.96 9985.53,7119.08C9985.67,7119.18 9985.81,7119.28 9985.95,7119.38C9986.62,7119.84 9987.05,7120.79 9988,7120.65C9990.42,7120.29 9995.19,7119.6 9997.59,7119.25C9999.76,7117.19 10002.8,7114.38 10004.6,7113.17L10013.1,7109.23L10020.9,7108.37L10028.1,7109.81L10035.9,7114.4L10039.2,7118.03L10042.1,7123.22C10046.5,7134.56 10040.5,7147.21 10028.6,7151.46C10028.6,7151.49 10028.5,7151.51 10028.4,7151.53C10026,7153.69 10023.1,7156.29 10022.3,7156.79C10014.9,7161.2 10003.5,7162.76 9994.98,7164.02C9982.67,7165.83 9972.63,7163.01 9963.66,7157.84C9956.66,7153.81 9950.83,7147.35 9943.92,7143.22C9941.35,7141.68 9931.47,7133.54 9928.19,7128.41L9925.81,7123.75L9924.43,7118.32L9924.48,7117.79C9923.25,7115.7 9921.03,7111.86 9920.27,7110.18C9913.6,7095.28 9918.91,7069.98 9927.84,7058.01C9947.73,7031.37 9980.07,7023.86 10011.3,7016.97C10016.9,7015.72 10022.9,7015.56 10028.9,7015.82C10032.4,7015.97 10036,7016.82 10039.2,7015.97C10073.7,7006.98 10109.8,7006.44 10145.1,7003.69C10175.4,7001.33 10205.2,6997.38 10232.1,6981.28C10262.3,6963.2 10278,6937.91 10289.6,6910.14C10303,6878.07 10311.3,6842.81 10326,6809.15C10332.2,6794.88 10350.9,6771.7 10370.8,6762.75C10380.3,6758.49 10390.1,6756.98 10399.6,6758.55C10409.3,6760.18 10419.1,6764.95 10427.7,6775.19C10436.3,6785.49 10440.4,6797.67 10442,6810.67C10443.7,6823.16 10442.3,6836.58 10445.2,6847.79C10459.5,6902.32 10442.3,6964.66 10432.9,7018.44C10429.8,7036.22 10420.8,7067.74 10409.1,7081.79C10396.9,7096.39 10381.5,7106.89 10366.1,7117.14C10354.3,7124.96 10342.3,7132.53 10333.2,7143.61C10328.8,7149.05 10326.8,7155.89 10324.5,7162.49C10321.9,7169.63 10319.2,7176.69 10315.5,7183.1C10298.2,7212.99 10289.9,7248.45 10279.4,7281.2C10274.8,7295.54 10272.5,7311.22 10269.1,7326.47C10264.8,7345.15 10258.9,7363.18 10247.8,7378.68C10206.2,7436.92 10134.2,7458.12 10063.7,7469.35C9961.3,7485.69 9846.07,7477.91 9750.44,7439.97C9738.2,7435.12 9717.03,7420.37 9707.99,7406.12C9705.98,7402.95 9704.45,7399.77 9703.39,7396.67L9701.67,7388.76L9701.84,7381.91L9700.74,7378.84L9700.81,7372.3L9703.27,7364.99L9707.16,7359.66L9711.43,7356.1L9721.86,7351.64C9741.55,7346.68 9774.98,7352.6 9795.23,7355.58C9843.36,7362.67 9896.75,7371.06 9945.36,7363.72C9947.97,7363.33 9949.81,7361.26 9952.05,7360.08C9955.39,7358.34 9958.82,7356.85 9962.41,7355.82C9974.29,7352.41 9987.97,7345.29 9997.67,7335.57C10004.5,7328.7 10009.8,7320.43 10007,7310.86C10004.2,7300.84 9992.53,7292.54 9980.43,7295.43C9962.48,7299.72 9947.21,7309.66 9928.54,7313.49C9857.54,7328.05 9766.46,7315.65 9712.38,7274.25C9697.39,7262.78 9673.28,7240.44 9664.39,7222.38C9641.68,7176.19 9648.69,7123.55 9640.54,7074.18C9631.37,7018.61 9623.88,6963.88 9623.88,6909.25C9623.88,6882.89 9625.62,6856.55 9629.76,6830.15C9635.1,6796.09 9627.59,6759.24 9633.22,6725.14C9636.62,6704.57 9635.61,6683.21 9635.58,6661.87C9635.54,6637.14 9636.71,6612.46 9644.47,6588.73C9647.44,6579.63 9649.93,6568.31 9654.17,6558.34C9658.25,6548.79 9663.84,6540.33 9671.31,6534.08C9676.45,6529.77 9686.97,6523.59 9693.11,6521.99C9709.52,6517.7 9721.51,6519.66 9730.43,6523.95L9736.89,6527.83L9742.28,6532.57C9746.37,6536.86 9749.67,6542.18 9752.08,6548.41C9755.34,6556.83 9756.97,6567.41 9757.93,6578.55C9758.93,6590.22 9758.93,6602.75 9762.18,6612.11C9765.09,6620.45 9765.7,6629.72 9765.31,6639.21C9764.98,6647.22 9763.27,6655.49 9765.11,6662.56C9768.47,6675.38 9765.53,6690.07 9765.53,6702.98C9765.53,6734.14 9764.04,6767.73 9769.37,6798.34C9772.15,6814.28 9772.52,6829.45 9774.19,6843.81C9775.65,6856.39 9778.16,6868.28 9787.03,6879.22C9790.41,6877.71 9793.7,6875.94 9796.7,6873.29C9802.85,6867.85 9804.66,6858.81 9806.02,6849.73C9808.01,6836.49 9807.66,6822.6 9807.66,6812.05C9807.66,6775.98 9809.38,6740.34 9809.38,6704.18C9809.38,6679.77 9803.09,6652.13 9808.11,6628.13C9811.76,6610.65 9806.62,6592.03 9809.14,6574.41C9811.38,6558.7 9813.54,6523.61 9811.58,6509.81C9809.87,6497.83 9814.86,6475.89 9818.39,6464.08C9826.24,6437.79 9827.38,6410.33 9846.74,6387.17C9850.68,6382.46 9853.52,6376.11 9857.64,6371.28C9860.07,6368.42 9862.78,6365.87 9865.81,6363.71L9873.58,6359.38L9885.25,6356.41C9888.9,6356.02 9892.92,6356.06 9897.41,6356.72C9925.69,6360.88 9938.88,6377.5 9944.38,6399.9C9949.51,6420.76 9944.94,6448.91 9948.1,6468.07C9956.25,6517.46 9941.63,6571.38 9950.74,6620.76C9951.94,6627.26 9951.7,6634.29 9950.96,6641.39C9950.43,6646.36 9948.98,6651.39 9950.13,6655.81C9952.66,6665.47 9954.87,6697.5 9954.12,6720.31C9953.73,6732.18 9952.25,6741.93 9950.51,6746.66C9949.01,6750.73 9950.8,6755.75 9951.25,6760.69C9951.96,6768.65 9951.96,6776.5 9950.13,6783.49C9949.43,6786.17 9950.72,6788.95 9951.14,6791.75C9952,6797.59 9952.41,6803.38 9951.58,6808.93C9949.73,6821.32 9950.59,6835.35 9955.04,6846.74C9957.25,6852.38 9960.06,6857.52 9964.95,6860.02C9968.81,6862 9973.58,6861.68 9979.4,6859.83C9980.54,6856.85 9983.33,6849.5 9984.37,6846.52C9992.2,6824.05 9990.6,6796.3 9990.6,6772.38C9990.6,6700.87 9990.56,6626.16 9983.13,6555.01C9979.23,6517.7 9982.92,6480.18 9977.54,6443.13C9974.1,6419.45 9981.08,6397.12 9983.29,6373.91C9984.86,6357.4 9991.2,6334.59 10004.6,6322.78C10010.6,6317.42 10017.4,6309.16 10025.7,6303.93C10033.2,6299.27 10041.5,6296.33 10050.9,6296.33Z" style="fill:rgb(35,31,32);"/>
        </g>
    </g>
</svg>
