<?xml version="1.0" encoding="UTF-8" standalone="no"?>
<!DOCTYPE svg PUBLIC "-//W3C//DTD SVG 1.1//EN" "http://www.w3.org/Graphics/SVG/1.1/DTD/svg11.dtd">
<svg width="100%" height="100%" viewBox="0 0 1772 1772" version="1.1" xmlns="http://www.w3.org/2000/svg" xmlns:xlink="http://www.w3.org/1999/xlink" xml:space="preserve" xmlns:serif="http://www.serif.com/" style="fill-rule:evenodd;clip-rule:evenodd;stroke-linejoin:round;stroke-miterlimit:2;">
    <g transform="matrix(1,0,0,1,-9934.53,-7667.97)">
        <g id="circle-icon" serif:id="circle icon" transform="matrix(0.920936,0,0,0.920936,-1656.03,2552.05)">
            <path d="M13547.5,5555.13C14078.4,5555.13 14509.4,5986.13 14509.4,6517C14509.4,7047.88 14078.4,7478.88 13547.5,7478.88C13016.6,7478.88 12585.6,7047.88 12585.6,6517C12585.6,5986.13 13016.6,5555.13 13547.5,5555.13ZM13588.4,5875.75C13578.2,5875.75 13569.1,5878.94 13561.1,5884.01C13552,5889.69 13544.7,5898.66 13538.1,5904.47C13523.5,5917.29 13516.7,5942.07 13515,5959.99C13512.6,5985.19 13505,6009.44 13508.7,6035.16C13514.6,6075.38 13510.5,6116.12 13514.8,6156.64C13522.9,6233.9 13522.9,6315.02 13522.9,6392.67C13522.9,6418.65 13524.6,6448.78 13516.1,6473.17C13515,6476.41 13512,6484.4 13510.7,6487.63C13504.4,6489.64 13499.2,6489.98 13495,6487.84C13489.7,6485.12 13486.7,6479.55 13484.3,6473.42C13479.4,6461.05 13478.5,6445.82 13480.5,6432.36C13481.4,6426.34 13481,6420.05 13480,6413.71C13479.6,6410.67 13478.2,6407.65 13479,6404.74C13480.9,6397.14 13480.9,6388.62 13480.2,6379.98C13479.7,6374.61 13477.7,6369.16 13479.4,6364.74C13481.3,6359.61 13482.9,6349.02 13483.3,6336.14C13484.1,6311.36 13481.7,6276.58 13479,6266.1C13477.7,6261.3 13479.3,6255.84 13479.8,6250.44C13480.7,6242.73 13480.9,6235.1 13479.6,6228.03C13469.7,6174.41 13485.6,6115.87 13476.7,6062.24C13473.3,6041.44 13478.3,6010.86 13472.7,5988.21C13466.7,5963.89 13452.4,5945.84 13421.7,5941.32C13416.8,5940.61 13412.5,5940.57 13408.5,5940.99L13395.8,5944.22L13387.4,5948.92C13384.1,5951.26 13381.2,5954.03 13378.5,5957.14C13374,5962.39 13371,5969.27 13366.7,5974.39C13345.7,5999.54 13344.4,6029.36 13335.9,6057.91C13332.1,6070.72 13326.6,6094.56 13328.5,6107.56C13330.6,6122.55 13328.3,6160.65 13325.9,6177.71C13323.1,6196.84 13328.7,6217.05 13324.7,6236.04C13319.3,6262.1 13326.1,6292.11 13326.1,6318.62C13326.1,6357.88 13324.2,6396.58 13324.2,6435.75C13324.2,6447.2 13324.6,6462.29 13322.5,6476.67C13321,6486.52 13319,6496.34 13312.3,6502.25C13309.1,6505.12 13305.5,6507.05 13301.9,6508.68C13292.2,6496.81 13289.5,6483.89 13287.9,6470.24C13286.1,6454.64 13285.7,6438.17 13282.7,6420.86C13276.9,6387.63 13278.5,6351.15 13278.5,6317.31C13278.5,6303.29 13281.7,6287.35 13278.1,6273.42C13276,6265.74 13277.9,6256.77 13278.3,6248.07C13278.7,6237.76 13278,6227.7 13274.9,6218.64C13271.3,6208.48 13271.3,6194.87 13270.2,6182.2C13269.2,6170.1 13267.4,6158.62 13263.9,6149.48C13261.3,6142.71 13257.7,6136.94 13253.3,6132.27L13247.4,6127.12L13240.4,6122.91C13230.7,6118.26 13217.7,6116.13 13199.9,6120.78C13193.2,6122.52 13181.8,6129.23 13176.2,6133.91C13168.1,6140.7 13162,6149.88 13157.6,6160.26C13153,6171.08 13150.3,6183.37 13147,6193.26C13138.6,6219.03 13137.3,6245.82 13137.4,6272.68C13137.4,6295.85 13138.5,6319.04 13134.8,6341.38C13128.7,6378.4 13136.9,6418.42 13131.1,6455.4C13126.6,6484.07 13124.7,6512.67 13124.7,6541.29C13124.7,6600.61 13132.8,6660.04 13142.8,6720.39C13151.6,6773.99 13144,6831.15 13168.7,6881.3C13178.3,6900.92 13204.5,6925.17 13220.8,6937.63C13279.5,6982.58 13378.4,6996.05 13455.5,6980.24C13475.8,6976.08 13492.4,6965.29 13511.9,6960.63C13525,6957.49 13537.6,6966.5 13540.7,6977.39C13543.7,6987.77 13538,6996.76 13530.6,7004.21C13520,7014.77 13505.2,7022.5 13492.3,7026.2C13488.4,7027.32 13484.7,7028.94 13481,7030.83C13478.6,7032.1 13476.6,7034.35 13473.8,7034.78C13421,7042.76 13363,7033.64 13310.8,7025.94C13288.8,7022.71 13252.5,7016.28 13231.1,7021.66L13219.8,7026.51L13215.1,7030.37L13210.9,7036.16L13208.2,7044.1L13208.1,7051.2L13209.3,7054.54L13209.2,7061.97L13211,7070.56C13212.2,7073.92 13213.8,7077.38 13216,7080.82C13225.8,7096.29 13248.8,7112.31 13262.1,7117.58C13366,7158.78 13491.1,7167.22 13602.3,7149.48C13678.8,7137.28 13757,7114.27 13802.2,7051.02C13814.2,7034.19 13820.7,7014.61 13825.3,6994.33C13829,6977.78 13831.5,6960.75 13836.5,6945.18C13847.9,6909.62 13856.9,6871.11 13875.7,6838.65C13879.7,6831.69 13882.6,6824.03 13885.4,6816.27C13888,6809.11 13890.1,6801.68 13894.9,6795.78C13904.8,6783.74 13917.8,6775.53 13930.6,6767.03C13947.4,6755.9 13964,6744.5 13977.3,6728.64C13990,6713.39 13999.8,6679.16 14003.2,6659.86C14013.4,6601.46 14032,6533.77 14016.5,6474.56C14013.3,6462.38 14014.9,6447.81 14013.1,6434.25C14011.3,6420.14 14006.9,6406.91 13997.5,6395.72C13988.2,6384.61 13977.6,6379.43 13967,6377.66C13956.7,6375.95 13946.1,6377.59 13935.8,6382.21C13914.1,6391.94 13893.8,6417.11 13887.1,6432.6C13871.2,6469.15 13862.1,6507.44 13847.5,6542.26C13834.9,6572.42 13818,6599.87 13785.1,6619.51C13755.9,6636.99 13723.6,6641.28 13690.7,6643.84C13652.3,6646.83 13613.1,6647.41 13575.7,6657.18C13572.2,6658.1 13568.3,6657.17 13564.5,6657.01C13558,6656.72 13551.5,6656.91 13545.3,6658.26C13511.5,6665.74 13476.3,6673.9 13454.7,6702.82C13445,6715.82 13439.3,6743.29 13446.5,6759.47C13447.3,6761.29 13449.8,6765.46 13451.1,6767.74L13451,6768.31L13452.5,6774.21L13455.1,6779.27C13458.7,6784.84 13469.4,6793.67 13472.2,6795.35C13479.7,6799.83 13486,6806.85 13493.6,6811.23C13503.4,6816.84 13514.3,6819.9 13527.6,6817.93C13536.9,6816.57 13549.2,6814.88 13557.3,6810.08C13558.2,6809.54 13561.4,6806.72 13564,6804.38C13564.1,6804.35 13564.1,6804.33 13564.2,6804.3C13577.1,6799.69 13583.6,6785.94 13578.8,6773.63L13575.7,6767.99L13572.1,6764.05L13563.6,6759.07L13555.8,6757.51L13547.3,6758.44L13538.1,6762.72C13536.2,6764.03 13532.8,6767.09 13530.5,6769.32C13527.9,6769.7 13522.7,6770.45 13520.1,6770.84C13519,6770.99 13518.6,6769.97 13517.9,6769.46C13517.7,6769.36 13517.5,6769.24 13517.4,6769.13C13516.1,6763.58 13512.8,6758.53 13507.9,6755.05C13507.1,6753.94 13505.6,6751.9 13505.2,6751.16C13497.2,6735.84 13509.9,6724.75 13522.5,6714.23C13525.9,6711.41 13530.8,6711.49 13535.6,6711.47C13544.4,6711.45 13553.4,6713.25 13560.3,6714.9C13577.2,6718.94 13597.7,6730.74 13612.4,6745.79C13620.9,6754.38 13627.7,6763.97 13629.3,6774.17C13631.2,6785.94 13626.1,6793.96 13623,6804.72C13620.8,6812.64 13614,6819.47 13606.8,6825.74C13597.1,6834.16 13585.9,6841.17 13577.3,6846.35C13572.7,6849.11 13568,6852.57 13563.1,6855.89C13559.8,6858.17 13556.6,6860.93 13552.7,6861.46C13489.2,6870.14 13435.3,6847.87 13403.2,6794.74C13395,6781.23 13384.8,6758.11 13388.7,6743.19C13394.7,6720.1 13395.9,6694.95 13412,6675.35C13415.9,6670.55 13421.6,6667.41 13427.1,6663.94C13433.1,6660.03 13439.2,6656.03 13444.5,6651.42C13465.9,6632.78 13493.2,6626.44 13521.6,6622.55C13555.6,6617.87 13591.3,6616.9 13623.4,6609.79C13626.2,6609.17 13629.3,6610.24 13632.3,6610.49C13638.6,6611.01 13645,6610.94 13651,6609.6C13683.8,6602.37 13713.3,6604.04 13744.8,6590.85C13748.6,6589.29 13753.5,6588.35 13757.9,6586.71C13761.4,6585.39 13764.8,6583.8 13767.8,6581.91L13775.1,6576.06C13796,6554.74 13825.9,6522.34 13836.9,6490.96C13860.2,6423.88 13859.3,6339.6 13847.8,6270.23C13840.1,6223.34 13843.7,6174.11 13839.9,6126.73C13836.6,6085.19 13833.2,6040 13818.3,6000.93C13812.2,5984.8 13804.2,5966.25 13792.5,5952.9C13786.9,5946.57 13773.2,5936.25 13773.2,5936.25C13768.5,5932.76 13762.6,5931.01 13756.6,5931.32C13756.6,5931.32 13741.7,5932.51 13732.6,5936.96L13725.6,5941.4L13720.5,5946.7C13711.1,5959.28 13707.5,5975.93 13705,5990.81C13697.2,6036.85 13690.8,6086.06 13690.8,6132.78C13690.8,6142.15 13692.4,6150.35 13695.4,6159.51C13695.4,6160.3 13695.4,6165.49 13695.2,6168.54C13694.6,6175.24 13693.5,6182.01 13693.1,6186.53C13691.1,6208.34 13693.1,6230.76 13692,6252.38C13690.2,6286.23 13700.2,6334.04 13700.2,6369.86C13700.2,6386.18 13694.7,6404.23 13696,6419.71C13697.3,6434.35 13695.5,6450.94 13688.9,6464.41C13684.8,6472.84 13678.5,6480 13669.1,6483.03L13660.1,6473.65C13654.3,6450.22 13657.4,6395.64 13661.3,6372.26C13665.5,6346.66 13662.9,6310.06 13659.2,6284.05C13655.2,6255.9 13656,6221.52 13659.1,6193.33C13663.3,6154.79 13655.2,6115.06 13659.3,6076.3C13661.5,6055.47 13658.7,6034.49 13660.9,6013.59C13661.4,6009.76 13660.3,6002.39 13659.7,5999.01L13660,5997.99L13660.7,5990.32C13660.6,5987.45 13659.7,5982.11 13659.2,5979.28C13665.4,5961.48 13660.8,5937.62 13648.5,5917.29C13635.4,5895.71 13614.4,5879.6 13597.7,5876.6C13594.5,5876.02 13591.4,5875.75 13588.4,5875.75Z" style="fill:rgb(35,31,32);"/>
        </g>
    </g>
</svg>
