<?xml version="1.0" encoding="UTF-8" standalone="no"?>
<!-- Created with Inkscape (http://www.inkscape.org/) -->

<svg
   version="1.1"
   id="svg1"
   width="600"
   height="3364"
   viewBox="0 0 600 3364"
   sodipodi:docname="scroll-b.svg"
   xml:space="preserve"
   inkscape:export-filename="/home/jonasblatter/Downloads/scroll-l.png"
   inkscape:export-xdpi="48"
   inkscape:export-ydpi="48"
   inkscape:version="1.4.3 (0d15f75042, 2025-12-25)"
   xmlns:inkscape="http://www.inkscape.org/namespaces/inkscape"
   xmlns:sodipodi="http://sodipodi.sourceforge.net/DTD/sodipodi-0.dtd"
   xmlns="http://www.w3.org/2000/svg"
   xmlns:svg="http://www.w3.org/2000/svg"><defs
     id="defs1"><filter
       style="color-interpolation-filters:sRGB"
       inkscape:label="Drop Shadow"
       id="filter34"
       x="-0.021085963"
       y="-0.0075116539"
       width="1.042172"
       height="1.0150234"><feFlood
         result="flood"
         in="SourceGraphic"
         flood-opacity="1.000000"
         flood-color="rgb(51,45,18)"
         id="feFlood33" /><feGaussianBlur
         result="blur"
         in="SourceGraphic"
         stdDeviation="10.000000"
         id="feGaussianBlur33" /><feOffset
         result="offset"
         in="blur"
         dx="0.000000"
         dy="0.000000"
         id="feOffset33" /><feComposite
         result="comp1"
         operator="out"
         in="flood"
         in2="offset"
         id="feComposite33" /><feComposite
         result="comp2"
         operator="in"
         in="comp1"
         in2="SourceGraphic"
         id="feComposite34" /></filter><clipPath
       clipPathUnits="userSpaceOnUse"
       id="clipPath35"><path
         style="mix-blend-mode:normal;fill:#000000;fill-opacity:1;stroke:none;stroke-width:2.50084;stroke-linecap:round;stroke-linejoin:round;stroke-dasharray:none;stroke-opacity:1"
         d="m 68.852658,3362.6558 c -0.3548,-0.355 -8.314,-0.9658 -17.6872,-1.3574 -15.0163,-0.6274 -17.3037,-0.9485 -19.242,-2.701 -4.3677,-3.9492 -17.4776,-12.1491 -20.7921,-13.0049 l -3.3893004,-0.8752 -0.6390998,-8.9346 c -0.3515,-4.9139 -0.7089,-17.0298 -0.7942,-26.9241 -0.085,-9.8943 0.10576,-23.2086 0.005,-34.2022 -0.01,-0.7695 13.3795502,-12.377 13.3795502,-12.377 0,0 -13.4145502,3.3491 -13.4214502,2.5672 -0.237,-26.978 -0.53645,-32.6277 -0.10825,-49.434 0.3028,-11.8857 0.4549,-54.7396 0.449,-129.5504 -10e-5,-0.7944 14.7180702,-1.5425 14.7180702,-1.5425 0,0 -14.7185702,-10.3376 -14.7186702,-11.1384 -0.01,-36.3129 -0.048,-74.6443 -0.1271,-123.2786 l -0.1559,-96.1079 c 3.1105998,-5.423 15.9615902,-8.6724 15.9615902,-8.6724 l -14.4902904,-9.99 0.2332,-49.9711 c 0.1282,-27.484 0.2251,-50.6456 0.2151,-51.4701 -0.01,-0.8245 -0.1851,-14.5416 -0.3891,-30.4823 -0.1959,-15.3041 -0.3635,-70.764 -0.3835,-127.8577 -4e-4,-1.1111 10.9836104,0.2156 10.9836104,0.2156 -0.0356,0.083 -12.2241702,-5.9346 -10.4998704,-11.2204 -0.01,-50.247 -0.78516,-88.9532 -0.8451598,-102.5573 -0.011,-2.469 10.0243002,-4.1407 10.0243002,-4.1407 0,0 -9.6435604,-9.0669 -9.6781604,-10.1756 -0.4860998,-15.5859 -0.3639698,-31.164 -0.5725698,-52.1808 -0.01,-0.8283 12.5403602,-3.2 12.5403602,-3.2 0,0 -13.5547302,-5.0601 -13.5639302,-6.1257 -0.2844,-33.0272 0.0656,-62.7138 0.68952,-70.0334 0.9872998,-11.584 0.8551998,-54.0687 -0.1891,-60.7973 -0.6254,-4.0306 -0.8762,-7.7507 -0.5572,-8.2671 0.3343,-0.541 0.5117,-33.3818 0.5651,-79.7797 0,-1.2791 17.1848902,-1.2 17.1848902,-1.2 0,0 -17.1780902,-5.5568 -17.1768902,-7.0188 0.014,-17.2873 0.012,-36.1978 0,-55.8513 0,-1.6188 13.8315902,-12.7098 13.8315902,-12.7098 0,0 -13.8387902,4.8228 -13.8403902,3.3094 -0.026,-25.2102 -0.075,-49.4503 -0.1436,-74.8042 0,-1.0271 17.2846202,-8.3859 17.2846202,-8.3859 0,0 -17.7854602,-0.8406 -17.7890602,-2.0915 -0.059,-20.492 0.35554,-38.6296 0.27324,-56.8425 0,-0.9439 18.9823602,-2.0767 18.9823602,-2.0767 0,0 -19.0035602,-2.5137 -19.0076602,-3.3935 -0.2181,-46.0933 -0.5085,-80.7384 -0.8421,-87.3266 -0.6366,-12.5722 -0.7974,-27.9787 -0.3755,-35.9792 0.4059,-7.6956 1.135,-32.6562 1.6205,-55.468 0.4854,-22.8118 0.9304998,-43.2749 0.9887998,-45.4737 0.023,-0.8619 0.52444,-7.3214 0.53344,-21.6832 8e-4,-1.2417 12.6931004,-2.3079 12.6931004,-2.3079 0,0 -12.2620004,-6.4601 -12.2613004,-8.2284 0.01,-21.1816 -0.66682,-48.8716 -0.68522,-81.1797 -3e-4,-0.6822 18.1805004,-9.0688 18.1805004,-9.0688 0,0 -17.6972704,-2.6201 -17.6978704,-3.5591 -0.041,-67.534 -0.40505,-114.6217 0.13415,-118.4309 0.8616,-6.088 1.1819,-51.2146 0.8429,-104.0575 -0.01,-1.2802 17.6081804,-11.7087 17.6081804,-11.7087 0,0 -18.3812404,-1.8505 -18.3914404,-3.1892 -0.086,-11.2417 0.52696,-19.8748 0.38056,-30.8585 -0.3335,-25.0104 -0.6849,-81.0032 -0.7809,-124.4281 -0.088,-39.9009 0.57755,-56.0603 0.26675,-66.4239 -0.04,-1.3365 25.4735004,-7.5546 25.4735004,-7.5546 0,0 -26.5355202,-6.9118 -27.8748502,-8.9735 -1.54653,-2.3807 -1.8723,-5.6273 -1.7183,-8.495 0.4366,-8.1305 0.2331,-34.1304 -0.4229,-54.0151 -0.584,-17.7045 -0.4504,-20.3267 1.4252,-27.9839 1.1383,-4.6469 2.5351998,-12.9461 3.1043998,-18.443 0.5692,-5.4968 1.8158,-13.36721 2.7703004,-17.48981 0.9546,-4.1226 1.6527,-9.9692 1.5513,-12.9925 -0.1944,-5.8002 -0.2833,-24.709 -0.1715,-36.47892 0.033,-3.4624 0.20772,-3.3736 0.0199,-6.1443 -0.072,-1.0535 14.98024,-8.774 14.98024,-8.774 0,0 -15.97868,-0.8752 -16.13308,-1.8202 -0.862,-5.2759 -2.1531804,-8.0183 -4.5768802,-12.2447 l -4.0117,-6.996 1.2939,-14.4916 c 1.2559,-14.0658 1.2254,-62.7402 -0.041,-64.789 -0.3158,-0.5112 -0.5986,-20.1266 -0.6282,-43.5896 -0.03,-23.4631 -0.4588,-44.7944 -0.9533,-47.4029 -0.6991,-3.687 0.17559,-19.65845 0.21249,-48.79765 0,-2.0271 18.4237502,-2.90348 18.4237502,-2.90348 0,0 -19.6111402,-13.17977 -19.6022402,-15.25527 0.06,-13.88596 0.19015,-25.91391 0.3925,-43.60803 0.19244,-16.82754 0.40486,-31.19946 0.62991,-43.52189 0.0186,-1.01636 10.4206902,-3.47762 10.4394202,-4.46632 0.0215,-1.13376 -10.3404202,-0.79066 -10.3187402,-1.8887 0.85449,-43.26629 1.86608,-59.06508 2.65327,-68.41795 0.0406,-0.48283 15.9720402,-11.63579 15.9720402,-11.63579 0,0 -15.1678902,2.90731 -15.1047902,-0.42063 0.7291,-38.46299 1.15976,-164.97878 1.17456,-226.30399 3e-4,-1.4186 22.4312702,0.0402 22.4312702,0.0402 0,0 -22.6775802,-11.69358 -22.6810802,-13.59908 -0.014,-8.00308 0.18784,-10.63155 0.12544,-14.61207 -0.3551,-22.62166 -1.251,-40.43556 -0.7517,-50.92175 0.5488,-11.52665 -0.6558,-52.36615 -2.0636,-69.95953 -0.5277,-6.59619 -0.885,-20.98787 -0.7939,-31.981504 0.091,-10.99365 -0.1998,-29.45062 -0.6465,-41.0155 -0.5955,-15.419246 -0.503,-21.604836 0.347,-23.193516 0.8302,-1.55151 3.9152,-3.04953 10.8687002,-5.2775 8.7971,-2.81867 10.2384,-3.64454 15.337,-8.78798 3.0951,-3.12232 6.1559,-6.69039 6.8016,-7.92907 l 1.1741,-2.25212 279.207182,0.12278 11.6704,12.35978 3e-4,-12.35464 285.07713,0.12536 31.23254,0.52651 5.1496,25.06069 4.6337,-25.56915 143.7394,0.0632 -0.9643,13.61735 9.0343,-13.6138 189.1375,0.32782 7.11606,10.23017 6.4856,-9.98552 180.3907,-0.40394 2.2757,2.27565 2.2759,2.27563 v 36.20211 c 0,9.480556 0.4684,18.643456 0.4404,30.681206 0,0.94137 -12.8739,8.25325 -12.8739,8.25325 0,0 12.3773,-0.67569 12.375,0.24236 -0.029,11.30808 -0.066,22.217954 -0.1059,30.505924 -0.088,18.41435 -0.1635,38.65264 -0.1682,44.97398 -0.05,65.9758 0.1567,120.29471 0.1351,168.01704 -6e-4,1.20716 -15.4045,2.99527 -15.4045,2.99527 0,0 15.6446,8.74186 15.6442,9.76807 -0.013,28.76205 -0.5054,50.21021 -0.5074,72.86801 -10e-5,1.00717 -8.0701,-2.23171 -8.0701,-2.23171 0,0 8.0698,7.12952 8.0697,8.06851 -8e-4,23.87673 0,41.9656 0.017,59.4604 7e-4,1.01147 -14.778,4.75947 -14.778,4.75947 0,0 14.7819,5.8874 14.7829,7.01839 0.049,58.34692 0.1791,77.60528 0.4014,77.96507 0.1661,0.26899 -14.441,9.08285 -14.441,9.08285 0,0 14.1548,-2.70866 13.8657,-0.84494 -1.0441,6.72857 -1.1764,49.21336 -0.1891,60.79727 1.0647,12.49161 0.8687,90.94884 -0.4563,132.16514 -0.023,0.7225 -13.9031,6.99775 -13.9031,6.99775 0,0 14.0599,2.40733 14.0524,3.61583 -0.065,10.5094 -0.606,54.33303 -0.6131,107.57643 0,1.2468 -11.2004,7.324 -11.2004,7.324 0,0 11.2001,-1.7398 11.2004,-0.8189 0,5.257 -0.01,10.5179 -0.011,15.7496 -6e-4,0.7899 -23.8233,3.4608 -23.8233,3.4608 0,0 23.8201,6.1494 23.8195,7.099 -0.033,49.82377 -0.1969,90.62598 -0.3694,104.10618 -0.204,15.9408 -0.3791,29.6581 -0.3891,30.4826 -0.01,0.8245 0.087,23.9861 0.215,51.47 l 0.022,4.7954 -18.2295,16.3008 18.7401,-8.2205 -0.2998,37.0954 c -3.1294,5.1144 -18.923,10.4555 -18.923,10.4555 0,0 13.9706,-4.2061 19.9808,7.3649 l 0.1096,105.0239 c 0.059,56.8418 0.2176,94.5595 0.5577,118.9221 0.011,0.7876 -13.9607,2.5077 -13.9607,2.5077 0,0 14.5045,4.3531 14.5173,5.1428 0.351,21.7293 0.39,28.5501 1.1619,31.4207 1.4037,5.2208 1.5152,25.0032 0.166,29.4764 -0.5792,1.9203 -1.0728,7.542 -1.0969,12.4928 -0.065,13.2962 -1.4521,23.632 -3.3116,24.6729 -0.855,0.4784 -2.3239,3.3117 -3.2643,6.2957 -1.5253,4.8401 -1.5686,6.3347 -0.3999,13.8486 0.8667,5.5723 1.0474,10.9148 0.5339,15.7864 -0.727,6.8953 -1.3583,9.2627 -0.9206,16.2111 0.031,0.4867 -13.3967,13.9014 -13.3967,13.9014 0,0 14.0582,-7.0902 14.1004,-6.5987 0.1229,1.4338 0.2702,2.8789 0.4419,4.3381 0.6996,5.9439 1.7127,8.9439 4.8939,14.4916 l 4.0118,6.9959 -1.2939,14.4917 c -1.2499,13.9974 -1.228,62.7359 0.029,64.7702 0.3095,0.5011 0.6165,19.9755 0.6824,43.2767 0.066,23.3013 0.5389,44.9042 1.0516,48.0063 0.5125,3.1024 1.105,22.5439 1.3165,43.2033 0.042,4.0586 -0.6612,6.6761 -0.6522,10.2923 0,0.7585 -15.3519,1.2763 -15.3519,1.2763 0,0 15.5983,6.9313 15.597,7.7107 -0.044,27.4256 -0.6822,38.306 -3.2442,45.3116 -0.8808,2.4087 -1.2948,10.0328 -1.3293,24.4857 -0.028,11.5434 -0.1435,26.6096 -0.2576,33.4807 -0.076,4.5945 -0.8425,9.3706 -0.8489,19.6872 -6e-4,0.8679 -19.3117,10.5361 -19.3117,10.5361 0,0 19.5535,-1.6572 19.5539,-0.7043 0.017,45.3695 0.056,125.4581 0.6223,180.1425 0.011,1.0252 -15.5061,9.2352 -15.5061,9.2352 0,0 15.679,0.2877 15.6889,1.2058 0.2376,21.9063 1.0867,34.1065 1.2994,40.2515 0.017,0.5016 -13.8467,-1.2531 -13.8467,-1.2531 0,0 14.1793,8.1368 14.1981,8.3599 0.7949,9.4444 1.7491,34.0556 2.2611,68.2011 0.01,0.4687 -12.8462,3.2294 -12.8462,3.2294 0,0 12.3941,4.1172 12.4002,4.5386 0.47,32.2534 0.5193,65.2991 0.5377,94.9905 3e-4,0.4262 -11.9565,-0.1216 -11.9565,-0.1216 0,0 11.9573,6.6152 11.9573,6.9178 0,29.3156 0.2195,47.2398 -0.4223,50.6251 -0.4947,2.6084 -0.9235,23.9396 -0.9533,47.4028 -0.03,23.463 -0.3124,43.0784 -0.6282,43.5895 -1.2661,2.0489 -1.2966,50.7233 -0.041,64.789 l 1.2939,14.4918 -4.0118,6.9959 c -3.1014,5.4084 -3.775,6.6449 -4.4189,14.2779 -0.038,0.4537 -13.6411,-1.3469 -13.6411,-1.3469 0,0 12.5079,9.2464 12.4839,9.725 -0.1195,2.3646 -0.1603,3.4843 -0.1333,6.3272 0.07,7.3518 0.7992,14.8191 0.7282,22.807 -0.01,0.597 -19.2545,2.5415 -19.2545,2.5415 0,0 17.6148,3.2499 18.3568,11.1305 -0.1014,3.0233 0.5967,8.8698 1.5514,12.9924 0.9545,4.1226 2.2011,11.993 2.7703,17.4898 0.5691,5.4969 1.9661,13.7963 3.1044,18.4431 1.8756,7.657 2.0091,10.2793 1.4252,27.9837 -0.656,19.8846 -0.8596,45.8846 -0.4229,54.015 0.154,2.8677 -0.4687,5.946 -1.7183,8.495 -0.7018,1.4316 -1.1535,2.7271 -1.4526,7.6806 -0.044,0.724 -24.1562,2.2965 -24.1562,2.2965 0,0 23.9608,2.044 23.9282,3.1594 -0.3044,10.4307 -0.3664,30.2321 -0.4539,69.8159 -0.096,43.4247 -0.4621,99.4173 -0.8132,124.4279 -0.144,10.2642 -0.015,19.9465 -0.1001,32.7656 0,0.6853 -16.9898,4.7634 -16.9898,4.7634 0,0 15.5116,4.4969 15.5074,5.1863 -0.1195,19.7269 1.5261,35.4148 1.5341,56.9349 2e-4,0.649 -10.53,3.7062 -10.53,3.7062 0,0 10.0446,2.06 10.0446,2.7557 0,14.4745 0.2897,25.3796 0.3522,38.8185 0.01,1.2133 -21.9527,10.6306 -21.9527,10.6306 0,0 21.7387,-3.4278 21.7444,-2.373 0.1727,31.801 0.4938,59.7754 0.9387,70.1826 0.5404,12.6427 1.2245,33.5556 1.5204,46.4731 0.2958,12.9175 1.135,27.3092 1.8649,31.9815 0.7298,4.6722 1.1197,10.9686 0.8663,13.9919 -0.2535,3.0232 0.1977,9.5206 1.0027,14.4386 0.8049,4.918 1.2532,9.4898 0.9961,10.1599 -0.2569,0.6699 -2.2039,2.4217 -4.3265,3.8932 -3.5645,2.4708 -4.6456,2.6774 -14.1634,2.7078 -5.6674,0.018 -36.3827,0.1079 -68.2562,0.1998 -32.3171,0.093 -65.2441,0.6849 -74.4378,1.3376 -9.0675,0.644 -30.6976,1.187 -48.06676,1.207 -17.3693,0.02 -37.3776,0.4925 -44.4629,1.0499 -1.2634,0.099 -7.4763,-10.3056 -7.4763,-10.3056 0,0 -1.8559,10.7336 -3.9561,10.7963 -12.8696,0.3838 -33.5256,0.7213 -53.9063,0.8475 -28.851,0.1787 -53.8052,0.71 -55.4538,1.1812 -0.3062,0.088 -6.5544,0.1645 -17.6827,0.232 -1.5142,0.01 2.85,-14.3579 2.85,-14.3579 0,0 -11.0127,14.4019 -12.8089,14.4102 -67.1721,0.3082 -240.08393,-0.086 -403.21997,-0.057 -0.4187,1e-4 -7.71871,-14.3846 -7.71871,-14.3846 0,0 0.3004,14.8704 -0.1108,14.8704 -44.0085,0.01 -84.44082,-0.9599 -123.66682,-0.9579 -1.7739,1e-4 -4.30921,-15.6608 -4.30921,-15.6608 0,0 -5.05683,16.3033 -6.76343,16.3033 -104.30769,0 -180.466512,0.7076 -180.779112,0.3949 z"
         id="path35"
         sodipodi:nodetypes="cssscssscssscsscccssssccscsscssssscsscsscsscsssscscsscssscsssscssssssssscsscsscsscsssssscsscsccccccscccccccccccccccccccsscsscscsscsscssccsscsccsscssscccccccsscssssssssscssscsssssscssssscsscsscsscsscssssscsscssscsssssssscsssscsscsscssssssssssssscsssscsscsscscc" /></clipPath><filter
       style="color-interpolation-filters:sRGB"
       inkscape:label="Drop Shadow"
       id="filter49"
       x="-0.02108798"
       y="-0.0075117187"
       width="1.042176"
       height="1.0150234"><feFlood
         result="flood"
         in="SourceGraphic"
         flood-opacity="1.000000"
         flood-color="rgb(96,64,32)"
         id="feFlood48" /><feGaussianBlur
         result="blur"
         in="SourceGraphic"
         stdDeviation="10.000000"
         id="feGaussianBlur48" /><feOffset
         result="offset"
         in="blur"
         dx="0.000000"
         dy="0.000000"
         id="feOffset48" /><feComposite
         result="comp1"
         operator="out"
         in="flood"
         in2="offset"
         id="feComposite48" /><feComposite
         result="comp2"
         operator="in"
         in="comp1"
         in2="SourceGraphic"
         id="feComposite49" /></filter></defs><sodipodi:namedview
     id="namedview1"
     pagecolor="#ffffff"
     bordercolor="#000000"
     borderopacity="0.25"
     inkscape:showpageshadow="2"
     inkscape:pageopacity="0.0"
     inkscape:pagecheckerboard="0"
     inkscape:deskcolor="#d1d1d1"
     inkscape:zoom="0.515"
     inkscape:cx="457.28155"
     inkscape:cy="1166.9903"
     inkscape:window-width="2048"
     inkscape:window-height="1083"
     inkscape:window-x="0"
     inkscape:window-y="0"
     inkscape:window-maximized="1"
     inkscape:current-layer="g1" /><g
     inkscape:groupmode="layer"
     inkscape:label="Image"
     id="g1"><path
       style="mix-blend-mode:normal;fill:#ffffff;fill-opacity:1;stroke:#734d26;stroke-width:2.50084;stroke-linecap:round;stroke-linejoin:round;stroke-dasharray:none;stroke-opacity:1"
       d="m 68.857534,3362.6557 c -0.3548,-0.355 -8.314,-0.9658 -17.6872,-1.3574 -15.0163,-0.6274 -17.3037,-0.9485 -19.242,-2.701 -4.3677,-3.9492 -17.4776,-12.1491 -20.7921,-13.0049 l -3.3893002,-0.8752 -0.6391,-8.9346 c -0.3515,-4.9139 -0.7089,-17.0298 -0.7942,-26.9241 -0.085,-9.8943 0.1057,-23.2086 0,-34.2022 -0.01,-0.7695 13.3795002,-12.377 13.3795002,-12.377 0,0 -13.4145002,3.3491 -13.4214002,2.5672 -0.237,-26.978 -0.5365,-32.6277 -0.1083,-49.434 0.3028,-11.8857 0.4549,-54.7396 0.449,-129.5504 -10e-5,-0.7944 14.7181002,-1.5425 14.7181002,-1.5425 0,0 -14.7186002,-10.3376 -14.7187002,-11.1384 -0.01,-36.3129 -0.048,-74.6443 -0.1271,-123.2786 l -0.1559,-96.1079 c 3.1106,-5.423 15.9616002,-8.6724 15.9616002,-8.6724 l -14.4903002,-9.99 0.2332,-49.9711 c 0.1282,-27.484 0.2251,-50.6456 0.2151,-51.4701 -0.01,-0.8245 -0.1851,-14.5416 -0.3891,-30.4823 -0.1959,-15.3041 -0.3635,-70.764 -0.3835,-127.8577 -4e-4,-1.1111 10.9837002,0.2156 10.9837002,0.2156 -0.036,0.083 -12.2242002,-5.9346 -10.4999002,-11.2204 -0.01,-50.247 -0.7852,-88.9532 -0.8452,-102.5573 -0.011,-2.469 10.0243002,-4.1407 10.0243002,-4.1407 0,0 -9.6435002,-9.0669 -9.6781002,-10.1756 -0.4861,-15.5859 -0.364,-31.164 -0.5726,-52.1808 -0.01,-0.8283 12.5404002,-3.2 12.5404002,-3.2 0,0 -13.5548002,-5.0601 -13.5640002,-6.1257 -0.2844,-33.0272 0.066,-62.7138 0.6895,-70.0334 0.9873,-11.584 0.8552,-54.0687 -0.1891,-60.7973 -0.6254,-4.0306 -0.8762,-7.7507 -0.5572,-8.2671 0.3343,-0.541 0.5117,-33.3818 0.5651,-79.7797 0,-1.2791 17.1849002,-1.2 17.1849002,-1.2 0,0 -17.1781002,-5.5568 -17.1769002,-7.0188 0.014,-17.2873 0.012,-36.1978 0,-55.8513 0,-1.6188 13.8316002,-12.7098 13.8316002,-12.7098 0,0 -13.8388002,4.8228 -13.8404002,3.3094 -0.026,-25.2102 -0.075,-49.4503 -0.1436,-74.8042 0,-1.0271 17.2847002,-8.3859 17.2847002,-8.3859 0,0 -17.7855002,-0.8406 -17.7891002,-2.0915 -0.059,-20.492 0.3555,-38.6296 0.2732,-56.8425 0,-0.9439 18.9824002,-2.0767 18.9824002,-2.0767 0,0 -19.0036002,-2.5137 -19.0077002,-3.3935 -0.2181,-46.0933 -0.5085,-80.7384 -0.8421,-87.3266 -0.6366,-12.5722 -0.7974,-27.9787 -0.3755,-35.9792 0.4059,-7.6956 1.135,-32.6562 1.6205,-55.468 0.4854,-22.8118 0.9305,-43.2749 0.9888,-45.4737 0.023,-0.8619 0.5245,-7.3214 0.5335,-21.6832 8e-4,-1.2417 12.6931002,-2.3079 12.6931002,-2.3079 0,0 -12.2620002,-6.4601 -12.2613002,-8.2284 0.01,-21.1816 -0.6668,-48.8716 -0.6852,-81.1797 -3e-4,-0.6822 18.1805002,-9.0688 18.1805002,-9.0688 0,0 -17.6973002,-2.6201 -17.6979002,-3.5591 -0.041,-67.534 -0.4051,-114.6217 0.1341,-118.4309 0.8616,-6.088 1.1819,-51.2146 0.8429,-104.0575 -0.01,-1.2802 17.6082002,-11.7087 17.6082002,-11.7087 0,0 -18.3812002,-1.8505 -18.3914002,-3.1892 -0.086,-11.2417 0.5269,-19.8748 0.3805,-30.8585 -0.3335,-25.0104 -0.6849,-81.0032 -0.7809,-124.4281 -0.088,-39.9009 0.5776,-56.0603 0.2668,-66.4239 -0.04,-1.3365 25.4735002,-7.5546 25.4735002,-7.5546 0,0 -26.5355002,-6.9118 -27.8749002,-8.9735 -1.5465,-2.3807 -1.8723,-5.6273 -1.7183,-8.495 0.4366,-8.1305 0.2331,-34.1304 -0.4229,-54.0151 -0.584,-17.7045 -0.4504,-20.3267 1.4252,-27.9839 1.1383,-4.6469 2.5352,-12.9461 3.1044,-18.443 0.5692,-5.4968 1.8158,-13.36719 2.7703002,-17.48979 0.9546,-4.1226 1.6527,-9.9692 1.5513,-12.9925 -0.1944,-5.8002 -0.2833,-24.709 -0.1715,-36.4789 0.033,-3.4624 0.2078,-3.3736 0.02,-6.1443 -0.072,-1.0535 14.9803,-8.774 14.9803,-8.774 0,0 -15.9787,-0.8752 -16.1331,-1.8202 -0.862,-5.2759 -2.1532002,-8.0183 -4.5769002,-12.2447 l -4.0117,-6.996 1.2939,-14.4916 c 1.2559,-14.0658 1.2254,-62.7402 -0.041,-64.789 -0.3158,-0.5112 -0.5986,-20.1266 -0.6282,-43.5896 -0.03,-23.4631 -0.4588,-44.7944 -0.9533,-47.4029 -0.6991,-3.687 0.1756,-19.65845 0.2125,-48.79765 0,-2.0271 18.4238002,-2.90348 18.4238002,-2.90348 0,0 -19.6112002,-13.17977 -19.6023002,-15.25527 0.06,-13.88596 0.1902,-25.91391 0.3925,-43.60803 0.1925,-16.82754 0.4049,-31.19946 0.6299,-43.52189 0.019,-1.01636 10.4207002,-3.47762 10.4395002,-4.46632 0.022,-1.13376 -10.3405002,-0.79066 -10.3188002,-1.8887 0.8545,-43.26629 1.8661,-59.06508 2.6533,-68.41795 0.041,-0.48283 15.9720002,-11.63579 15.9720002,-11.63579 0,0 -15.1679002,2.90731 -15.1048002,-0.42063 0.7291,-38.46299 1.1598,-164.97878 1.1746,-226.30399 3e-4,-1.4186 22.4313002,0.0402 22.4313002,0.0402 0,0 -22.6776002,-11.69358 -22.6811002,-13.59908 -0.014,-8.00308 0.1878,-10.63155 0.1254,-14.61207 -0.3551,-22.62166 -1.251,-40.43556 -0.7517,-50.92175 0.5488,-11.52665 -0.6558,-52.36615 -2.0636,-69.95953 -0.5277,-6.59619 -0.885,-20.98788 -0.7939,-31.981504 0.091,-10.99365 -0.1998,-29.45062 -0.6465,-41.0155 -0.5955,-15.41925 -0.503,-21.60484 0.347,-23.19352 0.8302,-1.55151 3.9152,-3.04953 10.8687002,-5.2775 8.7971,-2.81867 10.2384,-3.64454 15.337,-8.78798 3.0951,-3.1223298 6.1559,-6.6903998 6.8016,-7.9290798 l 1.1741,-2.25212 279.207196,0.12279 11.6704,12.3597698 3e-4,-12.3546398 67.04017,0.53808 7.11607,10.2301698 6.4856,-9.9855198 180.3907,-0.40394 2.2757,2.27565 2.2759,2.27563 V 42.524876 c 0,9.48056 0.4684,18.64346 0.4404,30.68121 0,0.94137 -12.8739,8.25326 -12.8739,8.25326 0,0 12.3773,-0.6757 12.375,0.24235 -0.029,11.30808 -0.066,22.217954 -0.1059,30.505934 -0.088,18.41435 -0.1635,38.65264 -0.1682,44.97398 -0.05,65.9758 0.1567,120.29471 0.1351,168.01704 -6e-4,1.20716 -15.4045,2.99527 -15.4045,2.99527 0,0 15.6446,8.74186 15.6442,9.76807 -0.013,28.76205 -0.5054,50.21021 -0.5074,72.86801 -1e-4,1.00717 -8.0701,-2.23171 -8.0701,-2.23171 0,0 8.0698,7.12952 8.0697,8.06851 -8e-4,23.87673 0,41.9656 0.017,59.4604 7e-4,1.01147 -14.778,4.75947 -14.778,4.75947 0,0 14.7819,5.8874 14.7829,7.01839 0.049,58.34692 0.1791,77.60528 0.4014,77.96507 0.1661,0.26899 -14.441,9.08285 -14.441,9.08285 0,0 14.1548,-2.70866 13.8657,-0.84494 -1.0441,6.72857 -1.1764,49.21336 -0.1891,60.79727 1.0647,12.49161 0.8687,90.94884 -0.4563,132.16514 -0.023,0.7225 -13.9031,6.99775 -13.9031,6.99775 0,0 14.0599,2.40733 14.0524,3.61583 -0.065,10.50943 -0.606,54.33303 -0.6131,107.57643 0,1.2468 -11.2004,7.324 -11.2004,7.324 0,0 11.2001,-1.7398 11.2004,-0.8189 0,5.257 -0.01,10.5179 -0.011,15.7496 -6e-4,0.7899 -23.8233,3.4608 -23.8233,3.4608 0,0 23.8201,6.1494 23.8195,7.099 -0.033,49.8238 -0.1969,90.62604 -0.3694,104.10624 -0.204,15.9408 -0.3791,29.6581 -0.3891,30.4826 -0.01,0.8245 0.087,23.9861 0.215,51.47 l 0.022,4.7954 -18.2295,16.3008 18.7401,-8.2205 -0.2998,37.0954 c -3.1294,5.1144 -18.923,10.4555 -18.923,10.4555 0,0 13.9706,-4.2061 19.9808,7.3649 l 0.1096,105.0239 c 0.0593,56.8418 0.2176,94.5595 0.5577,118.9221 0.011,0.7876 -13.9607,2.5077 -13.9607,2.5077 0,0 14.5045,4.3531 14.5173,5.1428 0.351,21.7293 0.39,28.5501 1.1619,31.4207 1.4037,5.2208 1.5152,25.0032 0.166,29.4764 -0.5792,1.9203 -1.0728,7.542 -1.0969,12.4928 -0.065,13.2962 -1.4521,23.632 -3.3116,24.6729 -0.855,0.4784 -2.3239,3.3117 -3.2643,6.2957 -1.5253,4.8401 -1.5686,6.3347 -0.3999,13.8486 0.8667,5.5723 1.0474,10.9148 0.5339,15.7864 -0.727,6.8953 -1.3583,9.2627 -0.9206,16.2111 0.031,0.4867 -13.3967,13.9014 -13.3967,13.9014 0,0 14.0582,-7.0902 14.1004,-6.5987 0.1229,1.4338 0.2702,2.8789 0.4419,4.3381 0.6996,5.9439 1.7126,8.944 4.8939,14.4916 l 4.0118,6.9959 -1.2939,14.4917 c -1.24977,13.9974 -1.228,62.7359 0.029,64.7702 0.3095,0.5011 0.6165,19.9755 0.6824,43.2767 0.066,23.3013 0.5389,44.9042 1.0516,48.0063 0.5125,3.1024 1.105,22.5439 1.3165,43.2033 0.042,4.0586 -0.6612,6.6761 -0.6522,10.2923 0,0.7585 -15.3519,1.2763 -15.3519,1.2763 0,0 15.5983,6.9313 15.597,7.7107 -0.044,27.4256 -0.6822,38.306 -3.2442,45.3116 -0.8808,2.4087 -1.2948,10.0328 -1.3293,24.4857 -0.028,11.5434 -0.1435,26.6096 -0.2576,33.4807 -0.076,4.5945 -0.8425,9.3706 -0.8489,19.6872 -6e-4,0.8679 -19.3117,10.5361 -19.3117,10.5361 0,0 19.5535,-1.6572 19.5539,-0.7043 0.017,45.3695 0.056,125.4581 0.6223,180.1425 0.011,1.0252 -15.5061,9.2352 -15.5061,9.2352 0,0 15.679,0.2877 15.6889,1.2058 0.2376,21.9063 1.0867,34.1065 1.2994,40.2515 0.017,0.5016 -13.8467,-1.2531 -13.8467,-1.2531 0,0 14.1793,8.1368 14.1981,8.3599 0.7949,9.4444 1.7491,34.0556 2.2611,68.2011 0.01,0.4687 -12.8462,3.2294 -12.8462,3.2294 0,0 12.3941,4.1172 12.4002,4.5386 0.47,32.2534 0.5193,65.2991 0.5377,94.9905 3e-4,0.4262 -11.9565,-0.1216 -11.9565,-0.1216 0,0 11.9573,6.6152 11.9573,6.9178 0,29.3156 0.2195,47.2398 -0.4223,50.6251 -0.4947,2.6084 -0.9235,23.9396 -0.9533,47.4028 -0.03,23.463 -0.3124,43.0784 -0.6282,43.5895 -1.2661,2.0489 -1.29685,50.7233 -0.041,64.789 l 1.2939,14.4918 -4.0118,6.9959 c -3.10144,5.4084 -3.775,6.6449 -4.4189,14.2779 -0.038,0.4537 -13.6411,-1.3469 -13.6411,-1.3469 0,0 12.5079,9.2464 12.4839,9.725 -0.1195,2.3646 -0.1603,3.4843 -0.1333,6.3272 0.07,7.3518 0.7992,14.8191 0.7282,22.807 -0.01,0.597 -19.2545,2.5415 -19.2545,2.5415 0,0 17.6148,3.2499 18.3568,11.1305 -0.1014,3.0233 0.5967,8.8698 1.5514,12.9924 0.9545,4.1226 2.2011,11.993 2.7703,17.4898 0.5691,5.4969 1.9661,13.7963 3.1044,18.4431 1.8756,7.657 2.0091,10.2793 1.4252,27.9837 -0.656,19.8846 -0.8596,45.8846 -0.4229,54.015 0.154,2.8677 -0.4687,5.946 -1.7183,8.495 -0.7018,1.4316 -1.1535,2.7271 -1.4526,7.6806 -0.044,0.724 -24.1562,2.2965 -24.1562,2.2965 0,0 23.9608,2.044 23.9282,3.1594 -0.3044,10.4307 -0.3664,30.2321 -0.4539,69.8159 -0.096,43.4247 -0.4621,99.4173 -0.8132,124.4279 -0.144,10.2642 -0.015,19.9465 -0.1001,32.7656 0,0.6853 -16.9898,4.7634 -16.9898,4.7634 0,0 15.5116,4.4969 15.5074,5.1863 -0.1195,19.7269 1.5261,35.4148 1.5341,56.9349 2e-4,0.649 -10.53,3.7062 -10.53,3.7062 0,0 10.0446,2.06 10.0446,2.7557 0,14.4745 0.2897,25.3796 0.3522,38.8185 0.01,1.2133 -21.9527,10.6306 -21.9527,10.6306 0,0 21.7387,-3.4278 21.7444,-2.373 0.1727,31.801 0.4938,59.7754 0.9387,70.1826 0.5404,12.6427 1.2245,33.5556 1.5204,46.4731 0.2958,12.9175 1.135,27.3092 1.8649,31.9815 0.7298,4.6722 1.1197,10.9686 0.8663,13.9919 -0.2535,3.0232 0.1977,9.5206 1.0027,14.4386 0.8049,4.918 1.2532,9.4898 0.9961,10.1599 -0.2569,0.6699 -2.2039,2.4217 -4.3265,3.8932 -3.5645,2.4708 -4.6456,2.6774 -14.1634,2.7078 -5.6674,0.018 -36.3827,0.1079 -68.2562,0.1998 -32.3171,0.093 -65.2441,0.6849 -74.4378,1.3376 -9.0675,0.644 -30.6976,1.187 -48.06684,1.207 -17.3693,0.02 -37.3776,0.4925 -44.4629,1.0499 -1.2634,0.099 -7.47624,-10.3056 -7.47624,-10.3056 0,0 -1.85596,10.7336 -3.95616,10.7963 -12.8696,0.3838 -33.5256,0.7213 -53.9063,0.8475 -28.851,0.1787 21.4141,0.9344 -17.8119,0.9364 -1.7739,10e-5 -4.3092,-15.6608 -4.3092,-15.6608 0,0 -5.0569,16.3033 -6.7635,16.3033 -104.3077,0 -180.466496,0.7076 -180.779096,0.3949 z"
       id="path36"
       sodipodi:nodetypes="cssscssscssscsscccssssccscsscssssscsscsscsscsssscscsscssscsssscssssssssscsscsscsscsssssscsscsccccccsccccccccccccsscsscscsscsscssccsscsccsscssscccccccsscssssssssscssscsssssscssssscsscsscsscsscssssscsscssscsssssssscsssscsscsscssssssssssssscssscscc" /></g></svg>
