<?xml version="1.0" standalone="no"?>
<!DOCTYPE svg PUBLIC "-//W3C//DTD SVG 20010904//EN"
 "http://www.w3.org/TR/2001/REC-SVG-20010904/DTD/svg10.dtd">
<svg version="1.0" xmlns="http://www.w3.org/2000/svg"
 width="1280.000000pt" height="1280.000000pt" viewBox="0 0 1280.000000 1280.000000"
 preserveAspectRatio="xMidYMid meet">
<metadata>
Created by potrace 1.15, written by Peter Selinger 2001-2017
</metadata>
<g transform="translate(0.000000,1280.000000) scale(0.100000,-0.100000)"
fill="#000000" stroke="none">
<path d="M6440 9809 c-96 -11 -223 -47 -358 -103 -177 -72 -263 -91 -432 -90
-168 0 -224 9 -520 89 -266 71 -411 93 -529 78 -164 -21 -273 -75 -391 -194
-133 -135 -270 -379 -418 -752 -54 -134 -113 -270 -132 -302 -49 -80 -153
-175 -305 -279 -244 -166 -323 -242 -390 -377 -75 -149 -107 -280 -129 -542
-11 -117 -23 -197 -36 -234 -39 -112 -189 -336 -354 -532 -122 -143 -158 -194
-191 -266 -115 -247 -54 -510 194 -845 149 -200 296 -420 340 -507 51 -103 97
-228 166 -453 70 -229 107 -324 199 -515 156 -323 321 -563 538 -782 119 -121
214 -192 384 -290 289 -165 569 -250 1049 -317 385 -53 563 -58 905 -24 217
21 229 21 310 5 105 -20 184 -52 320 -128 171 -95 296 -113 405 -56 65 34 95
62 197 182 99 117 164 170 268 219 109 51 199 66 397 66 382 0 563 41 750 168
117 79 199 175 265 307 46 93 67 158 131 420 86 347 145 485 416 973 89 160
177 328 197 374 102 239 125 454 78 738 -32 190 -83 317 -221 546 -152 250
-184 326 -208 484 -19 119 -18 273 0 510 20 253 19 512 -1 631 -67 392 -336
773 -726 1027 -224 145 -469 244 -1023 411 -378 114 -455 145 -589 239 -95 67
-205 107 -331 122 -101 11 -119 11 -225 -1z"/>
<path d="M10158 8780 c-197 -50 -376 -262 -450 -531 -20 -73 -23 -107 -23
-254 0 -160 2 -175 28 -250 36 -102 68 -156 131 -224 268 -283 698 -39 813
462 23 101 23 320 0 407 -26 99 -91 222 -147 280 -91 93 -237 139 -352 110z"/>
<path d="M10120 7061 c-192 -63 -270 -269 -162 -429 76 -113 222 -156 344 -99
101 46 158 128 166 238 4 56 1 75 -20 120 -34 75 -70 114 -133 144 -57 28
-151 41 -195 26z"/>
<path d="M2020 4660 c-157 -20 -283 -82 -395 -195 -235 -235 -234 -570 4 -805
267 -266 712 -263 976 5 109 111 166 248 166 400 0 302 -234 547 -566 595 -77
11 -104 11 -185 0z"/>
</g>
</svg>
